<?xml version="1.0" encoding="utf-8"?>
<!-- Generator: Adobe Illustrator 21.1.0, SVG Export Plug-In . SVG Version: 6.00 Build 0)  -->
<svg version="1.1" id="Layer_1" xmlns="http://www.w3.org/2000/svg" xmlns:xlink="http://www.w3.org/1999/xlink" x="0px" y="0px"
	 viewBox="0 0 283.5 283.5" style="enable-background:new 0 0 283.5 283.5;" xml:space="preserve">
<style type="text/css">
	.st0{fill:#B01F24;}
	.st1{fill:#AAAAAA;}
	.st2{fill:#626363;}
</style>
<g>
	<g>
		<g>
			<path class="st0" d="M34.8,111.3H20.7v42.1h14.1c17.8,0,21.5-11.6,21.5-21.2C56.3,122.6,52.6,111.3,34.8,111.3z M44.7,142.3
				c-1.7,2.2-5,3.3-10,3.3h-5.2V119h5.2c5,0,8.3,1.1,10,3.1c1.8,2.3,2.7,5.6,2.7,9.9C47.4,136.5,46.5,140,44.7,142.3z"/>
			<path class="st0" d="M84.5,112.2c-2.3-0.6-5.2-1-8.5-1H59.7v42.1h8.7v-15.6h7.9c5.1,0,9.2-1.2,12-3.5c2.8-2.3,4.3-5.7,4.3-10.1
				c0-2.7-0.7-5.2-2.1-7.4C89.1,114.5,87,113,84.5,112.2z M82.8,121c0.6,1,0.9,2.1,0.9,3.4c0,1.9-0.5,3.3-1.6,4.3
				c-1,0.9-3,1.4-5.7,1.4h-8v-11h7.9c2,0,3.6,0.1,4.6,0.4C81.6,119.6,82.3,120.1,82.8,121z"/>
			<path class="st0" d="M122.4,139.3c-0.2,2.4-1.1,4.1-2.6,5.3c-1.5,1.2-3.5,1.8-6.1,1.8c-3.3,0-5.8-1.1-7.8-3.4
				c-2-2.4-3.1-6-3.1-10.7c0-4.7,1-8.3,3.1-10.7c1.9-2.3,4.5-3.4,7.8-3.4c2.5,0,4.4,0.6,6,1.8c1.6,1.2,2.4,2.8,2.6,4.8l0.1,1.4h8.9
				l-0.2-1.7c-0.4-4.1-2.3-7.5-5.6-10.1c-3.3-2.5-7.3-3.8-11.9-3.8c-6,0-10.9,2-14.5,6c-3.5,3.9-5.3,9.2-5.3,15.7
				c0,6.5,1.8,11.8,5.3,15.7c3.6,4,8.5,6,14.5,6c4.8,0,8.9-1.3,12.1-3.8c3.2-2.5,5-6.1,5.4-10.6l0.2-1.7h-8.9L122.4,139.3z"/>
		</g>
		<g>
			<rect x="140.6" y="111.3" class="st1" width="8.1" height="42.1"/>
			<polygon class="st1" points="172.5,139.5 164,111.3 153.9,111.3 153.9,153.3 161.8,153.3 161.8,129.7 169.1,153.3 175.9,153.3 
				183.2,129.7 183.2,153.3 191.1,153.3 191.1,111.3 181,111.3 			"/>
			<path class="st1" d="M212.5,118.1c2.3,0,4.1,0.6,5.6,1.8c1.4,1.2,2.2,2.8,2.4,4.8l0.1,1.4h8.3l-0.2-1.7
				c-0.4-4.1-2.1-7.5-5.2-10.1c-3-2.5-6.8-3.8-11.1-3.8c-5.6,0-10.1,2-13.5,6c-3.3,3.9-4.9,9.2-4.9,15.7c0,6.5,1.6,11.8,4.9,15.7
				c3.3,4,7.9,6,13.5,6c4.5,0,8.3-1.3,11.2-3.8c3-2.5,4.7-6.1,5-10.6l0.1-1.7h-8.3l-0.1,1.4c-0.2,2.4-1,4.1-2.4,5.3
				c-1.4,1.2-3.3,1.8-5.7,1.8c-3.1,0-5.4-1.1-7.2-3.4c-1.9-2.4-2.8-6-2.8-10.7c0-4.7,1-8.3,2.9-10.7
				C207,119.3,209.4,118.1,212.5,118.1z"/>
			<path class="st1" d="M260.6,116.8c-1.4-2.3-3.3-3.9-5.7-4.6c-2.1-0.6-4.8-1-7.9-1H232v42.1h8.1v-15.6h7.4c4.8,0,8.5-1.2,11.1-3.5
				c2.6-2.3,4-5.7,4-10.1C262.6,121.5,261.9,119,260.6,116.8z M253.4,121c0.6,1,0.9,2.1,0.9,3.4c0,1.9-0.5,3.3-1.5,4.3
				c-1,0.9-2.8,1.4-5.3,1.4h-7.4v-11h7.3c1.9,0,3.3,0.1,4.3,0.4C252.3,119.6,252.9,120.1,253.4,121z"/>
		</g>
	</g>
	<g>
		<path class="st2" d="M26.2,171.6c-1.9,0-3.2-0.4-4.2-1.2s-1.4-1.9-1.4-3.2h1.7c0.1,1,0.5,1.7,1.2,2.2c0.7,0.5,1.6,0.7,2.6,0.7
			c1,0,1.8-0.2,2.4-0.6c0.6-0.4,0.9-0.9,0.9-1.6c0-0.7-0.3-1.2-0.9-1.6c-0.6-0.3-1.7-0.7-3.2-1s-2.6-0.8-3.2-1.3
			c-0.7-0.6-1-1.3-1-2.3c0-1.1,0.4-1.9,1.3-2.6c0.9-0.7,2-1,3.4-1c1.5,0,2.7,0.3,3.6,1c0.9,0.7,1.4,1.7,1.4,2.9H29
			c-0.2-1.6-1.3-2.4-3.3-2.4c-1,0-1.7,0.2-2.2,0.5s-0.8,0.8-0.8,1.5c0,0.5,0.2,1,0.6,1.2c0.4,0.3,1.2,0.5,2.4,0.8
			c1.2,0.3,2.1,0.5,2.8,0.8s1.3,0.6,1.8,1.2c0.5,0.5,0.7,1.2,0.7,2.1c0,1.1-0.4,2.1-1.3,2.8C28.8,171.2,27.6,171.6,26.2,171.6z"/>
		<path class="st2" d="M34.9,160.1h-1.7v-1.8h1.7V160.1z M34.9,171.4h-1.7v-9.5h1.7V171.4z"/>
		<path class="st2" d="M40.8,171.6c-2.6,0-4-1-4.1-3.1h1.7c0,1.2,0.8,1.7,2.4,1.7c0.7,0,1.2-0.1,1.6-0.4c0.4-0.3,0.6-0.7,0.6-1.1
			c0-0.4-0.2-0.7-0.5-0.9c-0.4-0.2-1.1-0.4-2.2-0.7c-1.1-0.3-1.9-0.6-2.5-0.9c-0.5-0.3-0.8-1-0.8-1.8c0-0.8,0.3-1.4,1-2
			c0.6-0.5,1.5-0.8,2.6-0.8c2.5,0,3.8,0.9,3.8,2.7h-1.7c-0.1-0.9-0.7-1.3-2-1.3c-0.6,0-1,0.1-1.4,0.3s-0.6,0.5-0.6,0.9
			c0,0.4,0.1,0.6,0.4,0.8c0.3,0.2,1,0.4,2.2,0.7s2,0.6,2.6,1c0.6,0.4,0.8,1,0.8,1.9c0,0.9-0.3,1.6-1,2.2
			C42.9,171.3,42,171.6,40.8,171.6z"/>
		<path class="st2" d="M50.3,171.4c-0.4,0.1-0.8,0.1-1.2,0.1c-0.7,0-1.2-0.1-1.5-0.4c-0.3-0.2-0.5-0.6-0.6-1s-0.1-0.9-0.1-1.6v-5.4
			h-1.2v-1.3h1.2v-2.4h1.7v2.4H50v1.3h-1.5v5.5c0,0.7,0.1,1.1,0.2,1.2c0.2,0.2,0.4,0.3,0.7,0.3c0.3,0,0.6,0,0.8-0.1V171.4z"/>
		<path class="st2" d="M55.7,171.6c-1.4,0-2.5-0.4-3.4-1.3c-0.8-0.9-1.3-2.1-1.3-3.7c0-1.6,0.4-2.8,1.2-3.6c0.8-0.9,1.9-1.3,3.2-1.3
			c1.4,0,2.4,0.4,3.2,1.3s1.2,2.1,1.2,3.7v0.4h-7.2c0.1,1.1,0.4,1.9,0.9,2.4c0.5,0.5,1.2,0.8,2,0.8c0.6,0,1.1-0.2,1.6-0.5
			c0.5-0.3,0.7-0.7,0.7-1.3h1.7c-0.1,1-0.6,1.7-1.3,2.3C57.7,171.4,56.8,171.6,55.7,171.6z M58.2,165.7c-0.1-0.9-0.4-1.6-0.9-2.1
			c-0.5-0.5-1.1-0.7-1.8-0.7c-0.7,0-1.3,0.2-1.7,0.7c-0.5,0.5-0.8,1.1-0.9,2.1H58.2z"/>
		<path class="st2" d="M74.7,171.4H73v-6.1c0-0.8-0.1-1.3-0.3-1.7s-0.6-0.5-1.1-0.5c-0.8,0-1.6,0.5-2.4,1.5v6.8h-1.7v-6.1
			c0-0.8-0.1-1.3-0.3-1.7s-0.6-0.5-1.1-0.5c-0.8,0-1.6,0.5-2.4,1.5v6.8h-1.7v-9.5h1.7v1.2c0.8-0.9,1.7-1.4,2.7-1.4
			c1.4,0,2.3,0.6,2.7,1.7c0.6-0.7,1.2-1.2,1.6-1.4c0.4-0.2,0.9-0.3,1.3-0.3c1.9,0,2.9,1.2,2.9,3.5V171.4z"/>
		<path class="st2" d="M83.2,170.4c-0.9,0.8-2,1.2-3.3,1.2c-0.9,0-1.7-0.3-2.3-0.8c-0.6-0.5-0.9-1.2-0.9-2c0-2.2,1.9-3.3,5.7-3.3
			h0.8c0-0.7,0-1.2-0.1-1.5c-0.1-0.3-0.3-0.6-0.6-0.8c-0.3-0.2-0.9-0.3-1.6-0.3c-1.5,0-2.3,0.5-2.3,1.6h-1.7c0.1-2,1.5-2.9,4.1-2.9
			c1.2,0,2.2,0.2,2.8,0.7c0.7,0.5,1,1.4,1,2.8v6.1h-1.7V170.4z M83.2,168.9v-2.1H82c-2.4,0-3.7,0.7-3.7,2c0,0.5,0.2,0.9,0.5,1.1
			c0.4,0.3,0.8,0.4,1.5,0.4c0.6,0,1.1-0.1,1.6-0.4C82.5,169.7,82.9,169.3,83.2,168.9z"/>
		<path class="st2" d="M98.2,170.3c-0.8,0.9-1.7,1.4-2.7,1.4c-1.2,0-2.2-0.4-2.9-1.3s-1-2.1-1-3.6c0-1.6,0.4-2.8,1.1-3.7
			c0.8-0.9,1.7-1.4,2.9-1.4c1,0,1.9,0.3,2.6,0.9v-4.4h1.7v13.1h-1.7V170.3z M98.2,168.7v-4.5c-0.7-0.8-1.6-1.2-2.5-1.2
			c-0.7,0-1.3,0.3-1.7,0.9c-0.4,0.6-0.6,1.6-0.6,2.8c0,1.2,0.2,2.1,0.6,2.7c0.4,0.6,1,0.9,1.7,0.9C96.6,170.3,97.5,169.8,98.2,168.7
			z"/>
		<path class="st2" d="M106.5,171.6c-1.4,0-2.5-0.4-3.4-1.3c-0.8-0.9-1.3-2.1-1.3-3.7c0-1.6,0.4-2.8,1.2-3.6
			c0.8-0.9,1.9-1.3,3.2-1.3c1.4,0,2.4,0.4,3.2,1.3s1.2,2.1,1.2,3.7v0.4h-7.2c0.1,1.1,0.4,1.9,0.9,2.4c0.5,0.5,1.2,0.8,2,0.8
			c0.6,0,1.1-0.2,1.6-0.5c0.5-0.3,0.7-0.7,0.7-1.3h1.7c-0.1,1-0.6,1.7-1.3,2.3C108.5,171.4,107.6,171.6,106.5,171.6z M109,165.7
			c-0.1-0.9-0.4-1.6-0.9-2.1c-0.5-0.5-1.1-0.7-1.8-0.7c-0.7,0-1.3,0.2-1.7,0.7c-0.5,0.5-0.8,1.1-0.9,2.1H109z"/>
		<path class="st2" d="M123.2,171.6c-1.9,0-3.3-0.6-4.4-1.8c-1.1-1.2-1.7-2.9-1.7-5s0.6-3.7,1.7-5c1.1-1.2,2.6-1.8,4.4-1.8
			c1.4,0,2.6,0.4,3.6,1.2c1,0.8,1.6,1.8,1.7,3h-1.8c-0.1-0.8-0.4-1.5-1.1-2c-0.6-0.5-1.5-0.7-2.4-0.7c-1.3,0-2.4,0.5-3.2,1.4
			c-0.8,0.9-1.2,2.2-1.2,3.9c0,1.7,0.4,3,1.2,3.9c0.8,0.9,1.8,1.4,3.1,1.4c1,0,1.9-0.3,2.5-0.8s1-1.2,1.1-2.1h1.8
			c-0.1,1.4-0.7,2.5-1.6,3.2C125.9,171.2,124.7,171.6,123.2,171.6z"/>
		<path class="st2" d="M134.6,161.7c1.4,0,2.4,0.4,3.2,1.3s1.2,2.1,1.2,3.7c0,1.6-0.4,2.8-1.2,3.7c-0.8,0.9-1.9,1.3-3.2,1.3
			c-1.3,0-2.4-0.4-3.2-1.3c-0.8-0.9-1.2-2.1-1.2-3.7c0-1.6,0.4-2.8,1.2-3.7S133.3,161.7,134.6,161.7z M134.6,170.3
			c0.8,0,1.5-0.3,2-0.9c0.5-0.6,0.8-1.5,0.8-2.7c0-1.2-0.3-2.1-0.8-2.7c-0.5-0.6-1.2-0.9-2-0.9s-1.5,0.3-2,0.9
			c-0.5,0.6-0.8,1.5-0.8,2.7c0,1.2,0.3,2.1,0.8,2.7C133.1,170,133.8,170.3,134.6,170.3z"/>
		<path class="st2" d="M142.6,163.1c0.8-0.9,1.8-1.4,2.8-1.4c2.1,0,3.2,1.2,3.2,3.5v6.2H147v-6.1c0-0.8-0.1-1.3-0.4-1.7
			c-0.3-0.3-0.7-0.5-1.4-0.5c-0.9,0-1.7,0.5-2.6,1.5v6.8H141v-9.5h1.7V163.1z"/>
		<path class="st2" d="M154.8,171.4c-0.4,0.1-0.8,0.1-1.2,0.1c-0.7,0-1.2-0.1-1.5-0.4c-0.3-0.2-0.5-0.6-0.6-1s-0.1-0.9-0.1-1.6v-5.4
			h-1.2v-1.3h1.2v-2.4h1.7v2.4h1.5v1.3h-1.5v5.5c0,0.7,0.1,1.1,0.2,1.2c0.2,0.2,0.4,0.3,0.7,0.3c0.3,0,0.6,0,0.8-0.1V171.4z"/>
		<path class="st2" d="M161.2,163.4c-0.2-0.1-0.6-0.1-1-0.1c-0.9,0-1.6,0.5-2.2,1.4v6.7h-1.7v-9.5h1.7v1.3c0.7-1,1.5-1.5,2.5-1.5
			c0.2,0,0.5,0,0.8,0.1V163.4z"/>
		<path class="st2" d="M166.2,161.7c1.4,0,2.4,0.4,3.2,1.3c0.8,0.9,1.2,2.1,1.2,3.7c0,1.6-0.4,2.8-1.2,3.7c-0.8,0.9-1.9,1.3-3.2,1.3
			c-1.3,0-2.4-0.4-3.2-1.3c-0.8-0.9-1.2-2.1-1.2-3.7c0-1.6,0.4-2.8,1.2-3.7C163.8,162.1,164.9,161.7,166.2,161.7z M166.2,170.3
			c0.8,0,1.5-0.3,2-0.9c0.5-0.6,0.8-1.5,0.8-2.7c0-1.2-0.2-2.1-0.8-2.7c-0.5-0.6-1.2-0.9-2-0.9c-0.8,0-1.5,0.3-2,0.9
			c-0.5,0.6-0.8,1.5-0.8,2.7c0,1.2,0.2,2.1,0.8,2.7C164.8,170,165.4,170.3,166.2,170.3z"/>
		<path class="st2" d="M174.3,171.4h-1.7v-13.1h1.7V171.4z"/>
		<path class="st2" d="M187.6,170.3c-0.8,0.9-1.7,1.4-2.7,1.4c-1.2,0-2.2-0.4-2.9-1.3s-1-2.1-1-3.6c0-1.6,0.4-2.8,1.1-3.7
			c0.8-0.9,1.7-1.4,2.9-1.4c1,0,1.9,0.3,2.6,0.9v-4.4h1.7v13.1h-1.7V170.3z M187.6,168.7v-4.5c-0.7-0.8-1.6-1.2-2.5-1.2
			c-0.7,0-1.3,0.3-1.7,0.9c-0.4,0.6-0.6,1.6-0.6,2.8c0,1.2,0.2,2.1,0.6,2.7s1,0.9,1.7,0.9C186,170.3,186.9,169.8,187.6,168.7z"/>
		<path class="st2" d="M195.9,171.6c-1.4,0-2.5-0.4-3.4-1.3c-0.8-0.9-1.3-2.1-1.3-3.7c0-1.6,0.4-2.8,1.2-3.6
			c0.8-0.9,1.9-1.3,3.2-1.3c1.4,0,2.4,0.4,3.2,1.3c0.8,0.9,1.2,2.1,1.2,3.7v0.4H193c0.1,1.1,0.4,1.9,0.9,2.4c0.5,0.5,1.2,0.8,2,0.8
			c0.6,0,1.1-0.2,1.6-0.5c0.5-0.3,0.7-0.7,0.7-1.3h1.7c-0.1,1-0.6,1.7-1.3,2.3C197.9,171.4,196.9,171.6,195.9,171.6z M198.3,165.7
			c-0.1-0.9-0.4-1.6-0.9-2.1c-0.5-0.5-1.1-0.7-1.8-0.7c-0.7,0-1.3,0.2-1.7,0.7c-0.5,0.5-0.8,1.1-0.9,2.1H198.3z"/>
		<path class="st2" d="M207.1,158.3h4.9c1.1,0,2,0.1,2.7,0.3c0.7,0.2,1.3,0.6,1.7,1.3c0.4,0.7,0.6,1.4,0.6,2.2c0,1.3-0.4,2.3-1.3,3
			c-0.8,0.7-2.1,1-3.7,1h-3.3v5.2h-1.7V158.3z M208.9,164.6h3.3c1.1,0,1.9-0.2,2.4-0.6s0.7-1,0.7-1.8c0-0.5-0.1-1-0.4-1.4
			c-0.3-0.4-0.6-0.7-1-0.8c-0.4-0.1-1-0.2-1.7-0.2h-3.3V164.6z"/>
		<path class="st2" d="M225.1,170.2c-0.8,1-1.8,1.4-2.8,1.4c-2.1,0-3.2-1.2-3.2-3.5v-6.2h1.7v6.1c0,0.8,0.1,1.3,0.4,1.7
			c0.3,0.3,0.7,0.5,1.4,0.5c0.9,0,1.8-0.5,2.6-1.5v-6.8h1.7v9.5h-1.7V170.2z"/>
		<path class="st2" d="M231,163.1c0.8-0.9,1.8-1.4,2.8-1.4c2.1,0,3.2,1.2,3.2,3.5v6.2h-1.7v-6.1c0-0.8-0.1-1.3-0.4-1.7
			s-0.7-0.5-1.4-0.5c-0.9,0-1.7,0.5-2.6,1.5v6.8h-1.7v-9.5h1.7V163.1z"/>
		<path class="st2" d="M243.2,171.4c-0.4,0.1-0.8,0.1-1.2,0.1c-0.7,0-1.2-0.1-1.5-0.4c-0.3-0.2-0.5-0.6-0.6-1
			c-0.1-0.4-0.1-0.9-0.1-1.6v-5.4h-1.2v-1.3h1.2v-2.4h1.7v2.4h1.5v1.3h-1.5v5.5c0,0.7,0.1,1.1,0.2,1.2c0.2,0.2,0.4,0.3,0.7,0.3
			c0.3,0,0.6,0,0.8-0.1V171.4z"/>
		<path class="st2" d="M248.5,161.7c1.4,0,2.4,0.4,3.2,1.3c0.8,0.9,1.2,2.1,1.2,3.7c0,1.6-0.4,2.8-1.2,3.7c-0.8,0.9-1.9,1.3-3.2,1.3
			c-1.3,0-2.4-0.4-3.2-1.3c-0.8-0.9-1.2-2.1-1.2-3.7c0-1.6,0.4-2.8,1.2-3.7C246,162.1,247.1,161.7,248.5,161.7z M248.5,170.3
			c0.8,0,1.5-0.3,2-0.9c0.5-0.6,0.8-1.5,0.8-2.7c0-1.2-0.2-2.1-0.8-2.7c-0.5-0.6-1.2-0.9-2-0.9c-0.8,0-1.5,0.3-2,0.9
			c-0.5,0.6-0.8,1.5-0.8,2.7c0,1.2,0.2,2.1,0.8,2.7C247,170,247.7,170.3,248.5,170.3z"/>
		<path class="st2" d="M258.2,171.6c-2.6,0-4-1-4.1-3.1h1.7c0,1.2,0.8,1.7,2.4,1.7c0.7,0,1.2-0.1,1.6-0.4c0.4-0.3,0.6-0.7,0.6-1.1
			c0-0.4-0.2-0.7-0.5-0.9s-1.1-0.4-2.2-0.7c-1.1-0.3-1.9-0.6-2.5-0.9s-0.8-1-0.8-1.8c0-0.8,0.3-1.4,1-2s1.5-0.8,2.6-0.8
			c2.5,0,3.8,0.9,3.8,2.7H260c-0.1-0.9-0.7-1.3-2-1.3c-0.6,0-1,0.1-1.4,0.3c-0.4,0.2-0.6,0.5-0.6,0.9c0,0.4,0.1,0.6,0.4,0.8
			c0.3,0.2,1,0.4,2.2,0.7s2,0.6,2.6,1s0.8,1,0.8,1.9c0,0.9-0.3,1.6-1,2.2C260.3,171.3,259.4,171.6,258.2,171.6z"/>
	</g>
</g>
</svg>
