<?xml version="1.0" encoding="utf-8"?>
<!-- Generator: Adobe Illustrator 24.0.1, SVG Export Plug-In . SVG Version: 6.00 Build 0)  -->
<svg version="1.1" id="Capa_1" xmlns="http://www.w3.org/2000/svg" xmlns:xlink="http://www.w3.org/1999/xlink" x="0px" y="0px"
	 viewBox="0 0 280 70.6" style="enable-background:new 0 0 280 70.6;" xml:space="preserve">
<style type="text/css">
	.st0{fill:#B01F24;}
	.st1{fill:#AAAAAA;}
	.st2{fill:#626363;}
</style>
<g>
	<g>
		<g>
			<path class="st0" d="M16.4,0.9H0.1v48.7h16.3c20.6,0,24.9-13.4,24.9-24.5C41.3,14,37,0.9,16.4,0.9z M27.9,36.8
				c-2,2.5-5.8,3.8-11.6,3.8h-6V9.8h6c5.8,0,9.6,1.3,11.6,3.6C30,16.1,31,19.9,31,24.9C31,30.1,30,34.1,27.9,36.8z"/>
			<path class="st0" d="M73.9,2c-2.7-0.7-6-1.2-9.8-1.2H45.2v48.7h10.1v-18h9.1c5.9,0,10.6-1.4,13.9-4c3.2-2.7,5-6.6,5-11.7
				c0-3.1-0.8-6-2.4-8.6C79.3,4.6,76.8,2.9,73.9,2z M72,12.1c0.7,1.2,1,2.4,1,3.9c0,2.2-0.6,3.8-1.9,5c-1.2,1-3.5,1.6-6.6,1.6h-9.3
				V10h9.1c2.3,0,4.2,0.1,5.3,0.5C70.6,10.5,71.4,11.1,72,12.1z"/>
			<path class="st0" d="M117.8,33.3c-0.2,2.8-1.3,4.7-3,6.1c-1.7,1.4-4,2.1-7.1,2.1c-3.8,0-6.7-1.3-9-3.9c-2.3-2.8-3.6-6.9-3.6-12.4
				s1.2-9.6,3.6-12.4c2.2-2.7,5.2-3.9,9-3.9c2.9,0,5.1,0.7,6.9,2.1c1.9,1.4,2.8,3.2,3,5.6l0.1,1.6h10.3l-0.2-2
				c-0.5-4.7-2.7-8.7-6.5-11.7c-3.8-2.9-8.4-4.4-13.8-4.4c-6.9,0-12.6,2.3-16.8,6.9c-4,4.5-6.1,10.6-6.1,18.2
				c0,7.5,2.1,13.7,6.1,18.2c4.2,4.6,9.8,6.9,16.8,6.9c5.6,0,10.3-1.5,14-4.4c3.7-2.9,5.8-7.1,6.2-12.3l0.2-2h-10.3V33.3z"/>
		</g>
		<g>
			<rect x="138.8" y="0.9" class="st1" width="9.4" height="48.7"/>
			<polygon class="st1" points="175.8,33.6 165.9,0.9 154.2,0.9 154.2,49.5 163.4,49.5 163.4,22.2 171.8,49.5 179.7,49.5 
				188.1,22.2 188.1,49.5 197.3,49.5 197.3,0.9 185.6,0.9 			"/>
			<path class="st1" d="M222,8.8c2.7,0,4.7,0.7,6.5,2.1c1.6,1.4,2.5,3.2,2.8,5.6l0.1,1.6h9.6l-0.2-2c-0.5-4.7-2.4-8.7-6-11.7
				c-3.5-2.9-7.9-4.4-12.8-4.4c-6.5,0-11.7,2.3-15.6,6.9c-3.8,4.5-5.7,10.6-5.7,18.2c0,7.5,1.9,13.7,5.7,18.2
				c3.8,4.6,9.1,6.9,15.6,6.9c5.2,0,9.6-1.5,13-4.4c3.5-2.9,5.4-7.1,5.8-12.3l0.1-2h-9.6l-0.1,1.6c-0.2,2.8-1.2,4.7-2.8,6.1
				c-1.6,1.4-3.8,2.1-6.6,2.1c-3.6,0-6.2-1.3-8.3-3.9c-2.2-2.8-3.2-6.9-3.2-12.4s1.2-9.6,3.4-12.4C215.7,10.2,218.4,8.8,222,8.8z"/>
			<path class="st1" d="M277.7,7.3c-1.6-2.7-3.8-4.5-6.6-5.3c-2.4-0.7-5.6-1.2-9.1-1.2h-17.4v48.7h9.4v-18h8.6c5.6,0,9.8-1.4,12.8-4
				s4.6-6.6,4.6-11.7C280,12.7,279.2,9.8,277.7,7.3z M269.4,12.1c0.7,1.2,1,2.4,1,3.9c0,2.2-0.6,3.8-1.7,5c-1.2,1-3.2,1.6-6.1,1.6
				H254V10h8.4c2.2,0,3.8,0.1,5,0.5C268.1,10.5,268.8,11.1,269.4,12.1z"/>
		</g>
	</g>
	<g>
		<path class="st2" d="M6.5,70.7c-2.2,0-3.7-0.5-4.9-1.4S0,67.1,0,65.6h2c0.1,1.2,0.6,2,1.4,2.5c0.8,0.6,1.9,0.8,3,0.8
			s2.1-0.2,2.8-0.7c0.7-0.5,1-1,1-1.9c0-0.8-0.3-1.4-1-1.9c-0.7-0.3-2-0.8-3.7-1.2s-3-0.9-3.7-1.5c-0.8-0.7-1.2-1.5-1.2-2.7
			c0-1.3,0.5-2.2,1.5-3c1-0.8,2.3-1.2,3.9-1.2c1.7,0,3.1,0.3,4.2,1.2s1.6,2,1.6,3.4H9.7c-0.2-1.9-1.5-2.8-3.8-2.8
			c-1.2,0-2,0.2-2.5,0.6c-0.6,0.3-0.9,0.9-0.9,1.7c0,0.6,0.2,1.2,0.7,1.4c0.5,0.3,1.4,0.6,2.8,0.9c1.4,0.3,2.4,0.6,3.2,0.9
			c0.8,0.3,1.5,0.7,2.1,1.4c0.6,0.6,0.8,1.4,0.8,2.4c0,1.3-0.5,2.4-1.5,3.2C9.5,70.2,8.1,70.7,6.5,70.7z"/>
		<path class="st2" d="M16.5,57.4h-2v-2.1h2V57.4z M16.5,70.5h-2v-11h2V70.5z"/>
		<path class="st2" d="M23.4,70.7c-3,0-4.6-1.2-4.7-3.6h2c0,1.4,0.9,2,2.8,2c0.8,0,1.4-0.1,1.9-0.5c0.5-0.3,0.7-0.8,0.7-1.3
			c0-0.5-0.2-0.8-0.6-1c-0.5-0.2-1.3-0.5-2.5-0.8c-1.3-0.3-2.2-0.7-2.9-1c-0.6-0.3-0.9-1.2-0.9-2.1c0-0.9,0.3-1.6,1.2-2.3
			c0.7-0.6,1.7-0.9,3-0.9c2.9,0,4.4,1,4.4,3.1h-2c-0.1-1-0.8-1.5-2.3-1.5c-0.7,0-1.2,0.1-1.6,0.3c-0.5,0.2-0.7,0.6-0.7,1
			s0.1,0.7,0.5,0.9c0.3,0.2,1.2,0.5,2.5,0.8c1.4,0.3,2.3,0.7,3,1.2c0.7,0.5,0.9,1.2,0.9,2.2c0,1-0.3,1.9-1.2,2.5
			C25.8,70.3,24.8,70.7,23.4,70.7z"/>
		<path class="st2" d="M34.4,70.5c-0.5,0.1-0.9,0.1-1.4,0.1c-0.8,0-1.4-0.1-1.7-0.5c-0.3-0.2-0.6-0.7-0.7-1.2
			c-0.1-0.5-0.1-1-0.1-1.9v-6.2H29v-1.5h1.4v-2.8h2v2.8H34v1.5h-1.7v6.4c0,0.8,0.1,1.3,0.2,1.4c0.2,0.2,0.5,0.3,0.8,0.3
			s0.7,0,0.9-0.1v1.6H34.4z"/>
		<path class="st2" d="M40.6,70.7c-1.6,0-2.9-0.5-3.9-1.5c-0.9-1-1.5-2.4-1.5-4.3c0-1.9,0.5-3.2,1.4-4.2c0.9-1,2.2-1.5,3.7-1.5
			c1.6,0,2.8,0.5,3.7,1.5c0.9,1,1.4,2.4,1.4,4.3v0.5H37c0.1,1.3,0.5,2.2,1,2.8c0.6,0.6,1.4,0.9,2.3,0.9c0.7,0,1.3-0.2,1.9-0.6
			c0.6-0.3,0.8-0.8,0.8-1.5h2c-0.1,1.2-0.7,2-1.5,2.7C42.9,70.5,41.9,70.7,40.6,70.7z M43.5,63.9c-0.1-1-0.5-1.9-1-2.4
			c-0.6-0.6-1.3-0.8-2.1-0.8c-0.8,0-1.5,0.2-2,0.8c-0.6,0.6-0.9,1.3-1,2.4H43.5z"/>
		<path class="st2" d="M62.6,70.5h-2v-7.1c0-0.9-0.1-1.5-0.3-2s-0.7-0.6-1.3-0.6c-0.9,0-1.9,0.6-2.8,1.7v7.9h-2v-7.1
			c0-0.9-0.1-1.5-0.3-2s-0.7-0.6-1.3-0.6c-0.9,0-1.9,0.6-2.8,1.7v7.9h-2v-11h2v1.4c0.9-1,2-1.6,3.1-1.6c1.6,0,2.7,0.7,3.1,2
			c0.7-0.8,1.4-1.4,1.9-1.6c0.5-0.2,1-0.3,1.5-0.3c2.2,0,3.4,1.4,3.4,4v7.2H62.6z"/>
		<path class="st2" d="M72.4,69.3c-1,0.9-2.3,1.4-3.8,1.4c-1,0-2-0.3-2.7-0.9c-0.7-0.6-1-1.4-1-2.3c0-2.5,2.2-3.8,6.6-3.8h0.9
			c0-0.8,0-1.4-0.1-1.7c-0.1-0.3-0.3-0.7-0.7-0.9c-0.3-0.2-1-0.3-1.9-0.3c-1.7,0-2.7,0.6-2.7,1.9h-2c0.1-2.3,1.7-3.4,4.7-3.4
			c1.4,0,2.5,0.2,3.2,0.8c0.8,0.6,1.2,1.6,1.2,3.2v7.1h-2v-0.9H72.4z M72.4,67.6v-2.4H71c-2.8,0-4.3,0.8-4.3,2.3
			c0,0.6,0.2,1,0.6,1.3c0.5,0.3,0.9,0.5,1.7,0.5c0.7,0,1.3-0.1,1.9-0.5C71.6,68.5,72.1,68,72.4,67.6z"/>
		<path class="st2" d="M89.8,69.2c-0.9,1-2,1.6-3.1,1.6c-1.4,0-2.5-0.5-3.4-1.5c-0.8-1-1.2-2.4-1.2-4.2c0-1.9,0.5-3.2,1.3-4.3
			c0.9-1,2-1.6,3.4-1.6c1.2,0,2.2,0.3,3,1v-5.1h2v15.2h-2V69.2z M89.8,67.3v-5.2c-0.8-0.9-1.9-1.4-2.9-1.4c-0.8,0-1.5,0.3-2,1
			c-0.5,0.7-0.7,1.9-0.7,3.2s0.2,2.4,0.7,3.1c0.5,0.7,1.2,1,2,1C87.9,69.2,89,68.6,89.8,67.3z"/>
		<path class="st2" d="M99.4,70.7c-1.6,0-2.9-0.5-3.9-1.5c-0.9-1-1.5-2.4-1.5-4.3c0-1.9,0.5-3.2,1.4-4.2c0.9-1,2.2-1.5,3.7-1.5
			c1.6,0,2.8,0.5,3.7,1.5c0.9,1,1.4,2.4,1.4,4.3v0.5h-8.3c0.1,1.3,0.5,2.2,1,2.8s1.4,0.9,2.3,0.9c0.7,0,1.3-0.2,1.9-0.6
			c0.6-0.3,0.8-0.8,0.8-1.5h2c-0.1,1.2-0.7,2-1.5,2.7C101.7,70.5,100.7,70.7,99.4,70.7z M102.3,63.9c-0.1-1-0.5-1.9-1-2.4
			c-0.6-0.6-1.3-0.8-2.1-0.8c-0.8,0-1.5,0.2-2,0.8c-0.6,0.6-0.9,1.3-1,2.4H102.3z"/>
		<path class="st2" d="M118.7,70.7c-2.2,0-3.8-0.7-5.1-2.1s-2-3.4-2-5.8c0-2.4,0.7-4.3,2-5.8c1.3-1.4,3-2.1,5.1-2.1
			c1.6,0,3,0.5,4.2,1.4c1.2,0.9,1.9,2.1,2,3.5h-2.1c-0.1-0.9-0.5-1.7-1.3-2.3c-0.7-0.6-1.7-0.8-2.8-0.8c-1.5,0-2.8,0.6-3.7,1.6
			c-0.9,1-1.4,2.5-1.4,4.5c0,2,0.5,3.5,1.4,4.5c0.9,1,2.1,1.6,3.6,1.6c1.2,0,2.2-0.3,2.9-0.9c0.7-0.6,1.2-1.4,1.3-2.4h2.1
			c-0.1,1.6-0.8,2.9-1.9,3.7C121.8,70.2,120.4,70.7,118.7,70.7z"/>
		<path class="st2" d="M131.9,59.2c1.6,0,2.8,0.5,3.7,1.5c0.9,1,1.4,2.4,1.4,4.3c0,1.9-0.5,3.2-1.4,4.3c-0.9,1-2.2,1.5-3.7,1.5
			s-2.8-0.5-3.7-1.5c-0.9-1-1.4-2.4-1.4-4.3c0-1.9,0.5-3.2,1.4-4.3C129.1,59.7,130.4,59.2,131.9,59.2z M131.9,69.2
			c0.9,0,1.7-0.3,2.3-1c0.6-0.7,0.9-1.7,0.9-3.1c0-1.4-0.3-2.4-0.9-3.1c-0.6-0.7-1.4-1-2.3-1c-0.9,0-1.7,0.3-2.3,1
			c-0.6,0.7-0.9,1.7-0.9,3.1c0,1.4,0.3,2.4,0.9,3.1C130.2,68.8,131,69.2,131.9,69.2z"/>
		<path class="st2" d="M141.2,60.9c0.9-1,2.1-1.6,3.2-1.6c2.4,0,3.7,1.4,3.7,4v7.2h-1.9v-7.1c0-0.9-0.1-1.5-0.5-2
			c-0.3-0.3-0.8-0.6-1.6-0.6c-1,0-2,0.6-3,1.7v7.9h-1.9v-11h2v1.4H141.2z"/>
		<path class="st2" d="M155.3,70.5c-0.5,0.1-0.9,0.1-1.4,0.1c-0.8,0-1.4-0.1-1.7-0.5c-0.3-0.2-0.6-0.7-0.7-1.2
			c-0.1-0.5-0.1-1-0.1-1.9v-6.2H150v-1.5h1.4v-2.8h2v2.8h1.7v1.5h-1.7v6.4c0,0.8,0.1,1.3,0.2,1.4c0.2,0.2,0.5,0.3,0.8,0.3
			c0.3,0,0.7,0,0.9-0.1L155.3,70.5L155.3,70.5z"/>
		<path class="st2" d="M162.7,61.2c-0.2-0.1-0.7-0.1-1.2-0.1c-1,0-1.9,0.6-2.5,1.6v7.8h-2v-11h2V61c0.8-1.2,1.7-1.7,2.9-1.7
			c0.2,0,0.6,0,0.9,0.1v1.9H162.7z"/>
		<path class="st2" d="M168.5,59.2c1.6,0,2.8,0.5,3.7,1.5c0.9,1,1.4,2.4,1.4,4.3c0,1.9-0.5,3.2-1.4,4.3c-0.9,1-2.2,1.5-3.7,1.5
			s-2.8-0.5-3.7-1.5c-0.9-1-1.4-2.4-1.4-4.3c0-1.9,0.5-3.2,1.4-4.3C165.7,59.7,167,59.2,168.5,59.2z M168.5,69.2
			c0.9,0,1.7-0.3,2.3-1c0.6-0.7,0.9-1.7,0.9-3.1c0-1.4-0.2-2.4-0.9-3.1c-0.6-0.7-1.4-1-2.3-1c-0.9,0-1.7,0.3-2.3,1
			c-0.6,0.7-0.9,1.7-0.9,3.1c0,1.4,0.2,2.4,0.9,3.1C166.8,68.8,167.5,69.2,168.5,69.2z"/>
		<path class="st2" d="M177.8,70.5h-2V55.3h2V70.5z"/>
		<path class="st2" d="M193.2,69.2c-0.9,1-2,1.6-3.1,1.6c-1.4,0-2.5-0.5-3.4-1.5c-0.8-1-1.2-2.4-1.2-4.2c0-1.9,0.5-3.2,1.3-4.3
			c0.9-1,2-1.6,3.4-1.6c1.2,0,2.2,0.3,3,1v-5.1h2v15.2h-2L193.2,69.2L193.2,69.2z M193.2,67.3v-5.2c-0.8-0.9-1.9-1.4-2.9-1.4
			c-0.8,0-1.5,0.3-2,1c-0.5,0.7-0.7,1.9-0.7,3.2s0.2,2.4,0.7,3.1c0.5,0.7,1.2,1,2,1C191.4,69.2,192.4,68.6,193.2,67.3z"/>
		<path class="st2" d="M202.8,70.7c-1.6,0-2.9-0.5-3.9-1.5c-0.9-1-1.5-2.4-1.5-4.3c0-1.9,0.5-3.2,1.4-4.2c0.9-1,2.2-1.5,3.7-1.5
			c1.6,0,2.8,0.5,3.7,1.5c0.9,1,1.4,2.4,1.4,4.3v0.5h-8.1c0.1,1.3,0.5,2.2,1,2.8c0.6,0.6,1.4,0.9,2.3,0.9c0.7,0,1.3-0.2,1.9-0.6
			c0.6-0.3,0.8-0.8,0.8-1.5h2c-0.1,1.2-0.7,2-1.5,2.7C205.1,70.5,204,70.7,202.8,70.7z M205.6,63.9c-0.1-1-0.5-1.9-1-2.4
			c-0.6-0.6-1.3-0.8-2.1-0.8c-0.8,0-1.5,0.2-2,0.8c-0.6,0.6-0.9,1.3-1,2.4H205.6z"/>
		<path class="st2" d="M215.8,55.3h5.7c1.3,0,2.3,0.1,3.1,0.3c0.8,0.2,1.5,0.7,2,1.5s0.7,1.6,0.7,2.5c0,1.5-0.5,2.7-1.5,3.5
			c-0.9,0.8-2.4,1.2-4.3,1.2h-3.8v6h-2v-15H215.8z M217.9,62.6h3.8c1.3,0,2.2-0.2,2.8-0.7c0.6-0.5,0.8-1.2,0.8-2.1
			c0-0.6-0.1-1.2-0.5-1.6c-0.3-0.5-0.7-0.8-1.2-0.9c-0.5-0.1-1.2-0.2-2-0.2h-3.8V62.6z"/>
		<path class="st2" d="M236.6,69.1c-0.9,1.2-2.1,1.6-3.2,1.6c-2.4,0-3.7-1.4-3.7-4v-7.2h2v7.1c0,0.9,0.1,1.5,0.5,2
			c0.3,0.3,0.8,0.6,1.6,0.6c1,0,2.1-0.6,3-1.7v-7.9h2v11h-2v-1.4H236.6z"/>
		<path class="st2" d="M243.4,60.9c0.9-1,2.1-1.6,3.2-1.6c2.4,0,3.7,1.4,3.7,4v7.2h-2v-7.1c0-0.9-0.1-1.5-0.5-2
			c-0.3-0.5-0.8-0.6-1.6-0.6c-1,0-2,0.6-3,1.7v7.9h-2v-11h2v1.4H243.4z"/>
		<path class="st2" d="M257.6,70.5c-0.5,0.1-0.9,0.1-1.4,0.1c-0.8,0-1.4-0.1-1.7-0.5c-0.3-0.2-0.6-0.7-0.7-1.2
			c-0.1-0.5-0.1-1-0.1-1.9v-6.2h-1.4v-1.5h1.4v-2.8h2v2.8h1.7v1.5h-1.7v6.4c0,0.8,0.1,1.3,0.2,1.4c0.2,0.2,0.5,0.3,0.8,0.3
			c0.3,0,0.7,0,0.9-0.1L257.6,70.5L257.6,70.5z"/>
		<path class="st2" d="M263.7,59.2c1.6,0,2.8,0.5,3.7,1.5c0.9,1,1.4,2.4,1.4,4.3c0,1.9-0.5,3.2-1.4,4.3c-0.9,1-2.2,1.5-3.7,1.5
			s-2.8-0.5-3.7-1.5c-0.9-1-1.4-2.4-1.4-4.3c0-1.9,0.5-3.2,1.4-4.3C260.8,59.7,262.1,59.2,263.7,59.2z M263.7,69.2
			c0.9,0,1.7-0.3,2.3-1c0.6-0.7,0.9-1.7,0.9-3.1c0-1.4-0.2-2.4-0.9-3.1c-0.6-0.7-1.4-1-2.3-1s-1.7,0.3-2.3,1
			c-0.6,0.7-0.9,1.7-0.9,3.1c0,1.4,0.2,2.4,0.9,3.1C262,68.8,262.8,69.2,263.7,69.2z"/>
		<path class="st2" d="M274.9,70.7c-3,0-4.6-1.2-4.7-3.6h2c0,1.4,0.9,2,2.8,2c0.8,0,1.4-0.1,1.9-0.5c0.5-0.3,0.7-0.8,0.7-1.3
			c0-0.5-0.2-0.8-0.6-1c-0.3-0.2-1.3-0.5-2.5-0.8c-1.3-0.3-2.2-0.7-2.9-1c-0.7-0.3-0.9-1.2-0.9-2.1c0-0.9,0.3-1.6,1.2-2.3
			c0.8-0.7,1.7-0.9,3-0.9c2.9,0,4.4,1,4.4,3.1H277c-0.1-1-0.8-1.5-2.3-1.5c-0.7,0-1.2,0.1-1.6,0.3c-0.5,0.2-0.7,0.6-0.7,1
			s0.1,0.7,0.5,0.9c0.3,0.2,1.2,0.5,2.5,0.8c1.4,0.3,2.3,0.7,3,1.2c0.7,0.5,0.9,1.2,0.9,2.2c0,1-0.3,1.9-1.2,2.5
			C277.3,70.3,276.3,70.7,274.9,70.7z"/>
	</g>
</g>
</svg>
