<!-- *NOTA: Para agregar más íconos únicamente copiar el código que se encuentra dentro de las
etiquetas SVG de tu .svg dentro de las etiquetas SYMBOL y copiar la propiedad viewBox para que el
vector se pueda redimensionar. :D -->

<svg xmlns="http://www.w3.org/2000/svg" xmlns:xlink="http://www.w3.org/1999/xlink" version="1.1"
    x="0px" y="0px" viewBox="0 0 512 512" style="enable-background:new 0 0 512 512;"
    xml:space="preserve" width="512px" height="512px"> 
    <style type="text/css">
        <![CDATA[  
            /* this is hiding all the nested svg elements unless they are the target*/
            svg > svg:not(:target) {
                display: none;
            }
        ]]> 
    </style>

    <!-- ::ico-certificados:: -->
    <symbol viewBox="0 -90 283.5 283.5"  id="ico-certificados">
        <g><circle class="st0" cx="13.9" cy="13.2" r="6.5"/><path class="st0" d="M37.2,19.7h54.3c3.6,0,6.5-2.9,6.5-6.5c0-3.6-2.9-6.5-6.5-6.5H37.2c-3.6,0-6.5,2.9-6.5,6.5C30.7,16.8,33.6,19.7,37.2,19.7z"/><circle class="st0" cx="13.9" cy="42" r="6.5"/><path class="st0" d="M91.5,35.5H37.2c-3.6,0-6.5,2.9-6.5,6.5s2.9,6.5,6.5,6.5h54.3c3.6,0,6.5-2.9,6.5-6.5S95.1,35.5,91.5,35.5z"/><circle class="st0" cx="13.9" cy="70.8" r="6.5"/><path class="st0" d="M91.5,64.3H37.2c-3.6,0-6.5,2.9-6.5,6.5c0,3.6,2.9,6.5,6.5,6.5h54.3c3.6,0,6.5-2.9,6.5-6.5C98,67.3,95.1,64.3,91.5,64.3z"/></g>
    </symbol>
    <svg version="1.1" id="svg-certificados" xmlns="http://www.w3.org/2000/svg" xmlns:xlink="http://www.w3.org/1999/xlink" viewBox="0 0 225 225" fill="#1569B0">
        <use xlink:href ="#ico-certificados"/>
    </svg>

    <!-- ::ico-certificados-emitidos:: -->
    <symbol viewBox="0 0 283.5 283.5"  id="ico-certificados-emitidos">
        <g>
            <g>
                <g>
                    <path d="M134.7,157.9L119.8,143c-1.2-1.2-1.2-3,0-4.2c1.2-1.2,3-1.2,4.2,0l10.8,10.8l22.6-22.3c1.2-1.2,3.1-1.1,4.2,0
                        c1.2,1.2,1.1,3.1,0,4.2L134.7,157.9z"/>
                </g>
            </g>
            <g>
                <path d="M141.3,188.3c-3.2,0-6.3-1.3-8.6-3.5l-6.4-6.4h-9.1c-6.7,0-12.1-5.4-12.1-12.1v-9.1l-6.4-6.4c-4.7-4.7-4.7-12.4,0-17.1
                    l6.4-6.4v-9.1c0-6.7,5.4-12.1,12.1-12.1h9.1l6.4-6.4c4.7-4.7,12.4-4.7,17.1,0l6.4,6.4h9.1c6.7,0,12.1,5.4,12.1,12.1v9.1l6.4,6.4
                    c4.7,4.7,4.7,12.4,0,17.1l-6.4,6.4v9.1c0,6.7-5.4,12.1-12.1,12.1h-9.1l-6.4,6.4C147.6,187.1,144.6,188.3,141.3,188.3z
                     M117.2,112.5c-3.1,0-5.6,2.5-5.6,5.6v11.8l-8.3,8.3c-2.2,2.2-2.2,5.7,0,7.9l8.3,8.3v11.8c0,3.1,2.5,5.6,5.6,5.6H129l8.3,8.3
                    c1.1,1.1,2.5,1.6,4,1.6s2.9-0.6,4-1.6l8.3-8.3h11.8c3.1,0,5.6-2.5,5.6-5.6v-11.7l8.3-8.3c2.2-2.2,2.2-5.7,0-7.9l-8.3-8.4v-11.8
                    c0-3.1-2.5-5.6-5.6-5.6h-11.8l-8.3-8.3c-2.2-2.2-5.7-2.2-7.9,0l-8.3,8.3H117.2z"/>
            </g>
        </g>
    </symbol>
    <svg version="1.1" id="svg-certificados-emitidos" xmlns="http://www.w3.org/2000/svg" xmlns:xlink="http://www.w3.org/1999/xlink" viewBox="0 0 283.5 283.5" fill="#1569B0">
        <use xlink:href ="#ico-certificados-emitidos"/>
    </svg>

    <!-- ::ico-dashboard:: -->
    <symbol viewBox="-90 0 283.5 110"  id="ico-dashboard">
        <path class="st0" d="M53.8,5.8C27.8,5.8,6.6,27,6.6,53s21.2,47.2,47.2,47.2S101,79,101,53S79.8,5.8,53.8,5.8z M91.6,48.5H58.3V15.2C75.7,17.2,89.6,31.1,91.6,48.5z M53.8,91.1c-21,0-38.1-17.1-38.1-38.1c0-19.5,14.7-35.6,33.6-37.9v42.4h42.4C89.4,76.4,73.3,91.1,53.8,91.1z"/>
    </symbol>
    <svg version="1.1" id="svg-dashboard" xmlns="http://www.w3.org/2000/svg" xmlns:xlink="http://www.w3.org/1999/xlink" viewBox="0 0 225 225" fill="#1569B0">
        <use xlink:href ="#ico-dashboard"/>
    </svg>

    <!-- ::ico-menu-m:: -->
    <symbol viewBox="0 0 283.5 283.5"  id="ico-menu-m">
        <g>
            <g>
                <path d="M141.7,94.9c-26,0-47.2,21.2-47.2,47.2s21.2,47.2,47.2,47.2s47.2-21.2,47.2-47.2S167.7,94.9,141.7,94.9z M141.7,180.3
                    c-21,0-38.1-17.1-38.1-38.1s17.1-38.1,38.1-38.1s38.1,17.1,38.1,38.1S162.7,180.3,141.7,180.3z"/>
            </g>
            <g>
                <polygon points="142.1,141.1 132,122.9 123.3,122.9 123.3,157.9 132,157.9 132,137.6 142.1,155.8 152.2,137.6 152.2,157.9 
                    160.9,157.9 160.9,122.9 152.2,122.9 		"/>
            </g>
        </g>
    </symbol>
    <svg version="1.1" id="svg-menu-m" xmlns="http://www.w3.org/2000/svg" xmlns:xlink="http://www.w3.org/1999/xlink" viewBox="0 0 225 225" fill="#1569B0">
        <use xlink:href ="#ico-menu-m"/>
    </svg>

    <!-- ::ico-menu-micuenta:: -->
    <symbol viewBox="0 0 283.5 283.5"  id="ico-menu-micuenta">
        <g><g><path class="st0" d="M141.8,138.4c-12.4,0-22.5-10.1-22.5-22.5s10.1-22.5,22.5-22.5s22.5,10.1,22.5,22.5S154.2,138.4,141.8,138.4z M141.8,99.9c-8.8,0-16,7.2-16,16s7.2,16,16,16s16-7.2,16-16S150.6,99.9,141.8,99.9z"/></g><g><path class="st0" d="M181.3,190.2h-6.5c0-23.6-10.2-34.1-33.1-34.1c-23.2,0-34.1,10.8-34.1,34.1h-6.5c0-26.9,13.7-40.6,40.6-40.6C168.4,149.6,181.3,162.9,181.3,190.2z"/></g></g>
    </symbol>
    <svg version="1.1" id="svg-menu-micuenta" xmlns="http://www.w3.org/2000/svg" xmlns:xlink="http://www.w3.org/1999/xlink" viewBox="0 0 225 225" fill="#1569B0">
        <use xlink:href ="#ico-menu-micuenta"/>
    </svg>
    
    
</svg>