<!-- *NOTA: Para agregar más íconos únicamente copiar el código que se encuentra dentro de las
etiquetas SVG de tu .svg dentro de las etiquetas SYMBOL y copiar la propiedad viewBox para que el
vector se pueda redimensionar. :D -->

<svg xmlns="http://www.w3.org/2000/svg" xmlns:xlink="http://www.w3.org/1999/xlink" version="1.1"
    x="0px" y="0px" viewBox="0 0 512 512" style="enable-background:new 0 0 512 512;"
    xml:space="preserve" width="512px" height="512px"> 
    <style type="text/css">
        <![CDATA[  
            /* this is hiding all the nested svg elements unless they are the target*/
            svg > svg:not(:target) {
                display: none;
            }
        ]]> 
    </style>

    <!-- ::ico-certificados:: -->
    <symbol viewBox="0 0 512 512"  id="ico-certificados">
        
        <g>
            <circle class="st0" cx="36.7" cy="93.2" r="36.7"/>
            <path class="st0" d="M168.4,130h306.9c20.3,0,36.7-16.4,36.7-36.7s-16.4-36.7-36.7-36.7H168.4c-20.3,0-36.7,16.4-36.7,36.7
                S148.1,130,168.4,130z"/>
            <circle class="st0" cx="36.7" cy="256" r="36.7"/>
            <path class="st0" d="M475.3,219.3H168.4c-20.3,0-36.7,16.4-36.7,36.7s16.4,36.7,36.7,36.7h306.9c20.3,0,36.7-16.4,36.7-36.7
                S495.6,219.3,475.3,219.3z"/>
            <circle class="st0" cx="36.7" cy="418.8" r="36.7"/>
            <path class="st0" d="M475.3,382H168.4c-20.3,0-36.7,16.4-36.7,36.7s16.4,36.7,36.7,36.7h306.9c20.3,0,36.7-16.4,36.7-36.7
                C512,399,495.6,382,475.3,382z"/>
        </g>

    </symbol>
    <svg version="1.1" id="svg-certificados" xmlns="http://www.w3.org/2000/svg" xmlns:xlink="http://www.w3.org/1999/xlink" viewBox="0 0 512 512" fill="#1569B0">
        <use xlink:href ="#ico-certificados"/>
    </svg>

    <!-- ::ico-certificados-emitidos:: -->
    <symbol viewBox="0 0 512 512"  id="ico-certificados-emitidos">
        <g>
            <g>
                <g>
                    <path class="st0" d="M219.7,343l-82.8-82.8c-6.7-6.7-6.7-16.7,0-23.3s16.7-6.7,23.3,0l60,60L345.8,173c6.7-6.7,17.2-6.1,23.3,0
                        c6.7,6.7,6.1,17.2,0,23.3L219.7,343z"/>
                </g>
            </g>
            <g>
                <path class="st0" d="M256.3,512c-17.8,0-35-7.2-47.8-19.5L173,457h-50.6c-37.2,0-67.2-30-67.2-67.2v-50.6l-35.6-35.6
                    c-26.1-26.1-26.1-68.9,0-95L55.2,173v-50.6c0-37.2,30-67.2,67.2-67.2H173l35.6-35.6c26.1-26.1,68.9-26.1,95,0l35.6,35.6h50.6
                    c37.2,0,67.2,30,67.2,67.2V173l35.6,35.6c26.1,26.1,26.1,68.9,0,95L457,339.2v50.6c0,37.2-30,67.2-67.2,67.2h-50.6l-35.6,35.6
                    C291.4,505.3,274.7,512,256.3,512z M122.4,90.7c-17.2,0-31.1,13.9-31.1,31.1v65.6l-46.1,46.1c-12.2,12.2-12.2,31.7,0,43.9
                    l46.1,46.1v65.6c0,17.2,13.9,31.1,31.1,31.1H188l46.1,46.1c6.1,6.1,13.9,8.9,22.2,8.9c8.3,0,16.1-3.3,22.2-8.9l46.1-46.1h65.6
                    c17.2,0,31.1-13.9,31.1-31.1v-65l46.1-46.1c12.2-12.2,12.2-31.7,0-43.9l-46.1-46.7v-65.6c0-17.2-13.9-31.1-31.1-31.1h-65.6
                    l-46.1-46.1c-12.2-12.2-31.7-12.2-43.9,0l-46.1,46.1H122.4z"/>
            </g>
        </g>
    </symbol>
    <svg version="1.1" id="svg-certificados-emitidos" xmlns="http://www.w3.org/2000/svg" xmlns:xlink="http://www.w3.org/1999/xlink" viewBox="0 0 250 250" fill="#1569B0">
        <use xlink:href ="#ico-certificados-emitidos"/>
    </svg>

    <!-- ::ico-dashboard:: -->
    <symbol viewBox="0 0 512 512"  id="ico-dashboard">
    
        <path class="st0" d="M256,0C115,0,0,115,0,256s115,256,256,256s256-115,256-256S397,0,256,0z M461,231.6H280.4V51
	C374.8,61.8,450.2,137.2,461,231.6z M256,462.6c-113.9,0-206.6-92.7-206.6-206.6c0-105.8,79.7-193.1,182.2-205.6v230h230
	C449.1,382.9,361.8,462.6,256,462.6z"/>

    </symbol>
    <svg version="1.1" id="svg-dashboard" xmlns="http://www.w3.org/2000/svg" xmlns:xlink="http://www.w3.org/1999/xlink" viewBox="0 0 512 512" fill="#1569B0">
        <use xlink:href ="#ico-dashboard"/>
    </svg>

    <!-- ::ico-menu-m:: -->
    <symbol viewBox="0 0 283.5 283.5"  id="ico-menu-m">
        <g>
            <g>
                <path d="M141.7,94.9c-26,0-47.2,21.2-47.2,47.2s21.2,47.2,47.2,47.2s47.2-21.2,47.2-47.2S167.7,94.9,141.7,94.9z M141.7,180.3
                    c-21,0-38.1-17.1-38.1-38.1s17.1-38.1,38.1-38.1s38.1,17.1,38.1,38.1S162.7,180.3,141.7,180.3z"/>
            </g>
            <g>
                <polygon points="142.1,141.1 132,122.9 123.3,122.9 123.3,157.9 132,157.9 132,137.6 142.1,155.8 152.2,137.6 152.2,157.9 
                    160.9,157.9 160.9,122.9 152.2,122.9 		"/>
            </g>
        </g>
    </symbol>
    <svg version="1.1" id="svg-menu-m" xmlns="http://www.w3.org/2000/svg" xmlns:xlink="http://www.w3.org/1999/xlink" viewBox="0 0 225 225" fill="#1569B0">
        <use xlink:href ="#ico-menu-m"/>
    </svg>

    <!-- ::ico-menu-micuenta:: -->
    <symbol viewBox="0 0 283.5 283.5"  id="ico-menu-micuenta">
        <g>
            <g>
                <path class="st0" d="M143.5,131.8c-36.3,0-65.9-29.6-65.9-65.9S107.2,0,143.5,0s65.9,29.6,65.9,65.9S179.8,131.8,143.5,131.8z
                     M143.5,19c-25.8,0-46.9,21.1-46.9,46.9s21.1,46.9,46.9,46.9s46.9-21.1,46.9-46.9S169.3,19,143.5,19z"/>
            </g>
            <g>
                <path class="st0" d="M259.2,283.5h-19c0-69.1-29.9-99.9-96.9-99.9c-67.9,0-99.9,31.6-99.9,99.9h-19c0-78.8,40.1-118.9,118.9-118.9
                    C221.4,164.6,259.2,203.5,259.2,283.5z"/>
            </g>
        </g>
    </symbol>
    <svg version="1.1" id="svg-menu-micuenta" xmlns="http://www.w3.org/2000/svg" xmlns:xlink="http://www.w3.org/1999/xlink" viewBox="0 0 283.5 283.5" fill="#1569B0">
        <use xlink:href ="#ico-menu-micuenta"/>
    </svg>
    
    
</svg>