<!-- *NOTA: Para agregar más íconos únicamente copiar el código que se encuentra dentro de las
etiquetas SVG de tu .svg dentro de las etiquetas SYMBOL y copiar la propiedad viewBox para que el
vector se pueda redimensionar. :D -->

<svg xmlns="http://www.w3.org/2000/svg" xmlns:xlink="http://www.w3.org/1999/xlink" version="1.1"
    x="0px" y="0px" viewBox="0 0 512 512" style="enable-background:new 0 0 512 512;"
    xml:space="preserve" width="512px" height="512px"> 
    <style type="text/css">
        <![CDATA[  
            /* this is hiding all the nested svg elements unless they are the target*/
            svg > svg:not(:target) {
                display: none;
            }
        ]]> 
    </style>

    <!-- ::ico-certificados:: -->
    <symbol viewBox="0 -90 283.5 283.5"  id="ico-certificados">
        <g><circle class="st0" cx="13.9" cy="13.2" r="6.5"/><path class="st0" d="M37.2,19.7h54.3c3.6,0,6.5-2.9,6.5-6.5c0-3.6-2.9-6.5-6.5-6.5H37.2c-3.6,0-6.5,2.9-6.5,6.5C30.7,16.8,33.6,19.7,37.2,19.7z"/><circle class="st0" cx="13.9" cy="42" r="6.5"/><path class="st0" d="M91.5,35.5H37.2c-3.6,0-6.5,2.9-6.5,6.5s2.9,6.5,6.5,6.5h54.3c3.6,0,6.5-2.9,6.5-6.5S95.1,35.5,91.5,35.5z"/><circle class="st0" cx="13.9" cy="70.8" r="6.5"/><path class="st0" d="M91.5,64.3H37.2c-3.6,0-6.5,2.9-6.5,6.5c0,3.6,2.9,6.5,6.5,6.5h54.3c3.6,0,6.5-2.9,6.5-6.5C98,67.3,95.1,64.3,91.5,64.3z"/></g>
    </symbol>
    <svg version="1.1" id="svg-certificados" xmlns="http://www.w3.org/2000/svg" xmlns:xlink="http://www.w3.org/1999/xlink" viewBox="0 0 225 225" fill="#1569B0">
        <use xlink:href ="#ico-certificados"/>
    </svg>

    <!-- ::ico-certificados-emitidos:: -->
    <symbol viewBox="0 0 283.5 283.5"  id="ico-certificados-emitidos">
        <g>
            <g>
                <g>
                    <path d="M121.5,190.4l-45.6-45.6c-3.7-3.7-3.7-9.2,0-12.9c3.7-3.7,9.2-3.7,12.9,0l33.1,33.1L191,96.7c3.7-3.7,9.5-3.4,12.9,0
                        c3.7,3.7,3.4,9.5,0,12.9L121.5,190.4z"/>
                </g>
            </g>
            <g>
                <path d="M141.7,283.5c-9.8,0-19.3-4-26.3-10.7l-19.6-19.6H67.9c-20.5,0-37.1-16.5-37.1-37.1v-27.9l-19.6-19.6
                    c-14.4-14.4-14.4-38,0-52.4l19.6-19.6V68.8c0-20.5,16.5-37.1,37.1-37.1h27.9l19.6-19.6c14.4-14.4,38-14.4,52.4,0l19.6,19.6h27.9
                    c20.5,0,37.1,16.5,37.1,37.1v27.9l19.6,19.6c14.4,14.4,14.4,38,0,52.4l-19.6,19.6v27.9c0,20.5-16.5,37.1-37.1,37.1h-27.9
                    l-19.6,19.6C161,279.8,151.8,283.5,141.7,283.5z M67.9,51.4c-9.5,0-17.1,7.7-17.1,17.1v36.1l-25.4,25.4c-6.7,6.7-6.7,17.5,0,24.2
                    l25.4,25.4v36.1c0,9.5,7.7,17.1,17.1,17.1h36.1l25.4,25.4c3.4,3.4,7.7,4.9,12.2,4.9c4.6,0,8.9-1.8,12.2-4.9l25.4-25.4h36.1
                    c9.5,0,17.1-7.7,17.1-17.1V180l25.4-25.4c6.7-6.7,6.7-17.5,0-24.2l-25.4-25.7V68.5c0-9.5-7.7-17.1-17.1-17.1h-36.1L154,26
                    c-6.7-6.7-17.5-6.7-24.2,0l-25.4,25.4H67.9z"/>
            </g>
        </g>
    </symbol>
    <svg version="1.1" id="svg-certificados-emitidos" xmlns="http://www.w3.org/2000/svg" xmlns:xlink="http://www.w3.org/1999/xlink" viewBox="0 0 283.5 283.5" fill="#1569B0">
        <use xlink:href ="#ico-certificados-emitidos"/>
    </svg>

    <!-- ::ico-dashboard:: -->
    <symbol viewBox="-90 0 283.5 110"  id="ico-dashboard">
        <path class="st0" d="M53.8,5.8C27.8,5.8,6.6,27,6.6,53s21.2,47.2,47.2,47.2S101,79,101,53S79.8,5.8,53.8,5.8z M91.6,48.5H58.3V15.2C75.7,17.2,89.6,31.1,91.6,48.5z M53.8,91.1c-21,0-38.1-17.1-38.1-38.1c0-19.5,14.7-35.6,33.6-37.9v42.4h42.4C89.4,76.4,73.3,91.1,53.8,91.1z"/>
    </symbol>
    <svg version="1.1" id="svg-dashboard" xmlns="http://www.w3.org/2000/svg" xmlns:xlink="http://www.w3.org/1999/xlink" viewBox="0 0 225 225" fill="#1569B0">
        <use xlink:href ="#ico-dashboard"/>
    </svg>

    <!-- ::ico-menu-m:: -->
    <symbol viewBox="0 0 283.5 283.5"  id="ico-menu-m">
        <g>
            <g>
                <path d="M141.7,94.9c-26,0-47.2,21.2-47.2,47.2s21.2,47.2,47.2,47.2s47.2-21.2,47.2-47.2S167.7,94.9,141.7,94.9z M141.7,180.3
                    c-21,0-38.1-17.1-38.1-38.1s17.1-38.1,38.1-38.1s38.1,17.1,38.1,38.1S162.7,180.3,141.7,180.3z"/>
            </g>
            <g>
                <polygon points="142.1,141.1 132,122.9 123.3,122.9 123.3,157.9 132,157.9 132,137.6 142.1,155.8 152.2,137.6 152.2,157.9 
                    160.9,157.9 160.9,122.9 152.2,122.9 		"/>
            </g>
        </g>
    </symbol>
    <svg version="1.1" id="svg-menu-m" xmlns="http://www.w3.org/2000/svg" xmlns:xlink="http://www.w3.org/1999/xlink" viewBox="0 0 225 225" fill="#1569B0">
        <use xlink:href ="#ico-menu-m"/>
    </svg>

    <!-- ::ico-menu-micuenta:: -->
    <symbol viewBox="0 0 283.5 283.5"  id="ico-menu-micuenta">
        <g><g><path class="st0" d="M141.8,138.4c-12.4,0-22.5-10.1-22.5-22.5s10.1-22.5,22.5-22.5s22.5,10.1,22.5,22.5S154.2,138.4,141.8,138.4z M141.8,99.9c-8.8,0-16,7.2-16,16s7.2,16,16,16s16-7.2,16-16S150.6,99.9,141.8,99.9z"/></g><g><path class="st0" d="M181.3,190.2h-6.5c0-23.6-10.2-34.1-33.1-34.1c-23.2,0-34.1,10.8-34.1,34.1h-6.5c0-26.9,13.7-40.6,40.6-40.6C168.4,149.6,181.3,162.9,181.3,190.2z"/></g></g>
    </symbol>
    <svg version="1.1" id="svg-menu-micuenta" xmlns="http://www.w3.org/2000/svg" xmlns:xlink="http://www.w3.org/1999/xlink" viewBox="0 0 225 225" fill="#1569B0">
        <use xlink:href ="#ico-menu-micuenta"/>
    </svg>
    
    
</svg>