<!-- *NOTA: Para agregar más íconos únicamente copiar el código que se encuentra dentro de las
etiquetas SVG de tu .svg dentro de las etiquetas SYMBOL y copiar la propiedad viewBox para que el
vector se pueda redimensionar. :D -->

<svg xmlns="http://www.w3.org/2000/svg" xmlns:xlink="http://www.w3.org/1999/xlink" version="1.1"
    x="0px" y="0px" viewBox="0 0 512 512" style="enable-background:new 0 0 512 512;"
    xml:space="preserve" width="512px" height="512px"> 
    <style type="text/css">
        <![CDATA[  
            /* this is hiding all the nested svg elements unless they are the target*/
            svg > svg:not(:target) {
                display: none;
            }
        ]]> 
    </style>

    <!-- ::ico-certificados:: -->
    <symbol viewBox="0 0 283.5 283.5"  id="ico-certificados">
        <circle cx="20.34" cy="20.34" r="20.34"/><path d="M93.25,72H263.16a20.34,20.34,0,0,0,0-40.68H93.25a20.34,20.34,0,0,0,0,40.68Z" transform="translate(0 -31.29)"/><circle cx="20.34" cy="110.46" r="20.34"/><path d="M263.16,121.41H93.25a20.34,20.34,0,0,0,0,40.68H263.16a20.34,20.34,0,0,0,0-40.68Z" transform="translate(0 -31.29)"/><circle cx="20.34" cy="200.58" r="20.34"/><path d="M263.16,211.53H93.25a20.34,20.34,0,0,0,0,40.68H263.16a20.34,20.34,0,0,0,0-40.68Z" transform="translate(0 -31.29)"/>    
    </symbol>
    <svg version="1.1" id="svg-certificados" xmlns="http://www.w3.org/2000/svg" xmlns:xlink="http://www.w3.org/1999/xlink" viewBox="0 0 225 225" fill="#1569B0">
        <use xlink:href ="#ico-certificados"/>
    </svg>

    <!-- ::ico-certificados-emitidos:: -->
    <symbol viewBox="0 0 283.5 283.5"  id="ico-certificados-emitidos">
        <g>
            <g>
                <g>
                    <path class="st0" d="M123.4,185.6l-41.7-41.7c-3.4-3.4-3.4-8.4,0-11.8c3.4-3.4,8.4-3.4,11.8,0l30.3,30.3L187,99.9
                        c3.4-3.4,8.7-3.1,11.8,0c3.4,3.4,3.1,8.7,0,11.8L123.4,185.6z"/>
                </g>
            </g>
            <g>
                <path class="st0" d="M141.9,270.8c-9,0-17.6-3.6-24.1-9.8l-17.9-17.9H74.4c-18.8,0-33.9-15.1-33.9-33.9v-25.5l-17.9-17.9
                    c-13.2-13.2-13.2-34.7,0-47.9l17.9-17.9V74.4c0-18.8,15.1-33.9,33.9-33.9h25.5l17.9-17.9c13.2-13.2,34.7-13.2,47.9,0l17.9,17.9
                    h25.5c18.8,0,33.9,15.1,33.9,33.9v25.5l17.9,17.9c13.2,13.2,13.2,34.7,0,47.9L243,183.7v25.5c0,18.8-15.1,33.9-33.9,33.9h-25.5
                    L165.7,261C159.5,267.4,151.1,270.8,141.9,270.8z M74.4,58.4c-8.7,0-15.7,7-15.7,15.7v33.1l-23.3,23.3c-6.2,6.2-6.2,16,0,22.1
                    l23.3,23.3v33.1c0,8.7,7,15.7,15.7,15.7h33.1l23.3,23.3c3.1,3.1,7,4.5,11.2,4.5c4.2,0,8.1-1.7,11.2-4.5l23.3-23.3h33.1
                    c8.7,0,15.7-7,15.7-15.7v-32.8l23.3-23.3c6.2-6.2,6.2-16,0-22.1l-23.3-23.5V74.1c0-8.7-7-15.7-15.7-15.7h-33.1l-23.3-23.3
                    c-6.2-6.2-16-6.2-22.1,0l-23.3,23.3H74.4z"/>
            </g>
        </g>
    </symbol>
    <svg version="1.1" id="svg-certificados-emitidos" xmlns="http://www.w3.org/2000/svg" xmlns:xlink="http://www.w3.org/1999/xlink" viewBox="0 0 250 250" fill="#1569B0">
        <use xlink:href ="#ico-certificados-emitidos"/>
    </svg>

    <!-- ::ico-dashboard:: -->
    <symbol viewBox="0 0 512 512"  id="ico-dashboard">
    
        <path class="st0" d="M256,0C115,0,0,115,0,256s115,256,256,256s256-115,256-256S397,0,256,0z M461,231.6H280.4V51
	C374.8,61.8,450.2,137.2,461,231.6z M256,462.6c-113.9,0-206.6-92.7-206.6-206.6c0-105.8,79.7-193.1,182.2-205.6v230h230
	C449.1,382.9,361.8,462.6,256,462.6z"/>

    </symbol>
    <svg version="1.1" id="svg-dashboard" xmlns="http://www.w3.org/2000/svg" xmlns:xlink="http://www.w3.org/1999/xlink" viewBox="0 0 512 512" fill="#1569B0">
        <use xlink:href ="#ico-dashboard"/>
    </svg>

    <!-- ::ico-menu-m:: -->
    <symbol viewBox="0 0 283.5 283.5"  id="ico-menu-m">
        <g>
            <g>
                <path d="M141.7,94.9c-26,0-47.2,21.2-47.2,47.2s21.2,47.2,47.2,47.2s47.2-21.2,47.2-47.2S167.7,94.9,141.7,94.9z M141.7,180.3
                    c-21,0-38.1-17.1-38.1-38.1s17.1-38.1,38.1-38.1s38.1,17.1,38.1,38.1S162.7,180.3,141.7,180.3z"/>
            </g>
            <g>
                <polygon points="142.1,141.1 132,122.9 123.3,122.9 123.3,157.9 132,157.9 132,137.6 142.1,155.8 152.2,137.6 152.2,157.9 
                    160.9,157.9 160.9,122.9 152.2,122.9 		"/>
            </g>
        </g>
    </symbol>
    <svg version="1.1" id="svg-menu-m" xmlns="http://www.w3.org/2000/svg" xmlns:xlink="http://www.w3.org/1999/xlink" viewBox="0 0 225 225" fill="#1569B0">
        <use xlink:href ="#ico-menu-m"/>
    </svg>

    <!-- ::ico-menu-micuenta:: -->
    <symbol viewBox="0 0 283.5 283.5"  id="ico-menu-micuenta">
        <g>
            <g>
                <path class="st0" d="M143.5,131.8c-36.3,0-65.9-29.6-65.9-65.9S107.2,0,143.5,0s65.9,29.6,65.9,65.9S179.8,131.8,143.5,131.8z
                     M143.5,19c-25.8,0-46.9,21.1-46.9,46.9s21.1,46.9,46.9,46.9s46.9-21.1,46.9-46.9S169.3,19,143.5,19z"/>
            </g>
            <g>
                <path class="st0" d="M259.2,283.5h-19c0-69.1-29.9-99.9-96.9-99.9c-67.9,0-99.9,31.6-99.9,99.9h-19c0-78.8,40.1-118.9,118.9-118.9
                    C221.4,164.6,259.2,203.5,259.2,283.5z"/>
            </g>
        </g>
    </symbol>
    <svg version="1.1" id="svg-menu-micuenta" xmlns="http://www.w3.org/2000/svg" xmlns:xlink="http://www.w3.org/1999/xlink" viewBox="0 0 283.5 283.5" fill="#1569B0">
        <use xlink:href ="#ico-menu-micuenta"/>
    </svg>
    
    
</svg>