<!-- *NOTA: Para agregar más íconos únicamente copiar el código que se encuentra dentro de las
etiquetas SVG de tu .svg dentro de las etiquetas SYMBOL y copiar la propiedad viewBox para que el
vector se pueda redimensionar. :D -->

<svg xmlns="http://www.w3.org/2000/svg" xmlns:xlink="http://www.w3.org/1999/xlink" version="1.1"
    x="0px" y="0px" viewBox="0 0 512 512" style="enable-background:new 0 0 512 512;"
    xml:space="preserve" width="512px" height="512px"> 
    <style type="text/css">
        <![CDATA[  
            /* this is hiding all the nested svg elements unless they are the target*/
            svg > svg:not(:target) {
                display: none;
            }
        ]]> 
    </style>

    <!-- ::ico-actividad:: -->
    <symbol  viewBox="0 0 575.969 575.969" id="ico-m">
        <g>
            <path class="st0" d="M141.7,94.9c-26,0-47.2,21.2-47.2,47.2s21.2,47.2,47.2,47.2s47.2-21.2,47.2-47.2S167.7,94.9,141.7,94.9z
                 M141.7,180.3c-21,0-38.1-17.1-38.1-38.1s17.1-38.1,38.1-38.1s38.1,17.1,38.1,38.1S162.7,180.3,141.7,180.3z"/>
            <polygon class="st0" points="142.1,141.1 132,122.9 123.3,122.9 123.3,157.9 132,157.9 132,137.6 142.1,155.8 152.2,137.6 
                152.2,157.9 160.9,157.9 160.9,122.9 152.2,122.9 	"/>
        </g>
    </symbol>
    <!-- ::ico-actividad:: -->
    <symbol  viewBox="0 0 575.969 575.969" id="ico-actividad">
        <g><g><path d="M336,32h-34.752C294.656,13.376,276.864,0,256,0s-38.656,13.376-45.28,32H176c-8.832,0-16,7.168-16,16v64c0,8.832,7.168,16,16,16h160c8.832,0,16-7.168,16-16V48C352,39.168,344.832,32,336,32z"/></g></g><g><g><path d="M416,64h-32v48c0,26.464-21.536,48-48,48H176c-26.464,0-48-21.536-48-48V64H96c-17.632,0-32,14.368-32,32v384c0,17.952,14.048,32,32,32h320c17.952,0,32-14.048,32-32V96C448,78.048,433.952,64,416,64z M251.328,347.328l-64,64C184.192,414.432,180.096,416,176,416s-8.192-1.568-11.328-4.672l-32-32c-6.24-6.24-6.24-16.384,0-22.624s16.384-6.24,22.624,0L176,377.376l52.672-52.672c6.24-6.24,16.384-6.24,22.624,0S257.568,341.056,251.328,347.328z M251.328,219.328l-64,64C184.192,286.432,180.096,288,176,288s-8.192-1.568-11.328-4.672l-32-32c-6.24-6.24-6.24-16.384,0-22.624s16.384-6.24,22.624,0L176,249.376l52.672-52.672c6.24-6.24,16.384-6.24,22.624,0C257.536,202.944,257.568,213.056,251.328,219.328z M368,384h-64c-8.832,0-16-7.168-16-16c0-8.832,7.168-16,16-16h64c8.832,0,16,7.168,16,16C384,376.832,376.832,384,368,384z M368,256h-64c-8.832,0-16-7.168-16-16c0-8.832,7.168-16,16-16h64c8.832,0,16,7.168,16,16C384,248.832,376.832,256,368,256z"/></g></g>
    </symbol>

    <!-- ::svg-actividad:: -->
    <svg version="1.1" id="svg-actividad" xmlns="http://www.w3.org/2000/svg" xmlns:xlink="http://www.w3.org/1999/xlink" viewBox="0 0 225 225" fill="#1569B0">
        <use xlink:href ="#ico-actividad"/>
    </svg>


    <!-- ::ico-articulo:: -->
    <symbol viewBox="0 -1 460.58969 460" id="ico-articulo">
        <g transform="matrix(6.12323e-17 1 -1 6.12323e-17 464.295 -1.29485)"><path d="m186.894531 14.507812-121.023437 40.34375-52.3125-52.3125c-3.140625-3.03125-8.128906-2.988281-11.214844.097657-3.085938 3.085937-3.128906 8.078125-.097656 11.214843l53.800781 53.800782-38.847656 116.542968 273.6875 273.707032 169.703125-169.707032zm-38.710937 133.96875c-14.527344 14.496094-37.664063 15.652344-53.558594 2.671876-15.894531-12.976563-19.390625-35.878907-8.089844-53.007813l11.765625 11.769531c-4.457031 9.136719-2.59375 20.101563 4.632813 27.253906 9.496094 9.0625 24.441406 9.0625 33.9375 0 8.324218-8.230468 9.476562-21.277343 2.71875-30.835937-6.757813-9.5625-19.4375-12.832031-29.976563-7.730469l-11.769531-11.769531c17.132812-11.300781 40.03125-7.804687 53.011719 8.089844 12.980469 15.898437 11.824219 39.035156-2.671875 53.558593zm142.703125 275.488282-124.457031-124.457032 22.632812-22.625 124.4375 124.457032zm33.933593-33.945313-124.445312-124.445312 11.3125-11.3125 124.445312 124.4375zm22.625-22.621093-124.441406-124.457032 22.625-22.625 124.441406 124.449219zm33.953126-33.945313-124.457032-124.457031 22.625-22.632813 124.457032 124.457031zm-90.511719-158.402344 11.3125-11.308593 124.445312 124.453124-11.3125 11.3125zm0 0" data-original="#000000"/></g> 
    </symbol>

    <!-- ::svg-articulo:: -->
    <svg version="1.1" id="svg-articulo" xmlns="http://www.w3.org/2000/svg" xmlns:xlink="http://www.w3.org/1999/xlink" viewBox="0 0 225 225" fill="#1569B0">
        <use xlink:href ="#ico-articulo"/>
    </svg>


    <!-- ::ico-admin:: -->
    <symbol  viewBox="0 0 16.377 16.377" id="ico-admin">       
        <g><g><path d="M4.331,5.043c0.042,0.256,0.141,0.417,0.238,0.52c0.231,1.54,1.521,2.97,2.698,2.97c1.373,0,2.623-1.547,2.865-2.967c0.098-0.101,0.199-0.264,0.242-0.522c0.078-0.289,0.18-0.791,0.002-1.025c-0.01-0.012-0.02-0.023-0.029-0.034c0.166-0.606,0.377-1.858-0.375-2.711C9.906,1.188,9.486,0.686,8.585,0.42L8.158,0.271C7.45,0.052,7.004,0.004,6.986,0.001c-0.031-0.003-0.065,0-0.096,0.008C6.865,0.016,6.782,0.038,6.716,0.03C6.547,0.006,6.293,0.093,6.248,0.11c-0.06,0.023-1.43,0.573-1.846,1.849C4.363,2.063,4.197,2.605,4.418,3.936C4.385,3.958,4.355,3.985,4.33,4.019C4.152,4.253,4.252,4.754,4.331,5.043z M4.869,2.141C4.872,2.135,4.874,2.128,4.877,2.12c0.339-1.052,1.541-1.538,1.549-1.542c0.055-0.021,0.162-0.051,0.219-0.051c0.118,0.016,0.254-0.005,0.328-0.022C7.094,0.522,7.47,0.583,8.001,0.747l0.432,0.148c0.801,0.237,1.141,0.681,1.143,0.684c0.006,0.007,0.012,0.013,0.016,0.019c0.695,0.783,0.338,2.079,0.211,2.457C9.774,4.144,9.795,4.242,9.86,4.308c0.033,0.034,0.072,0.057,0.115,0.069C9.977,4.5,9.942,4.725,9.887,4.922C9.885,4.931,9.883,4.941,9.881,4.95C9.86,5.089,9.813,5.19,9.75,5.236c-0.053,0.04-0.09,0.101-0.1,0.167c-0.166,1.19-1.268,2.629-2.382,2.629c-0.938,0-2.055-1.325-2.213-2.624C5.047,5.34,5.012,5.279,4.956,5.238c-0.063-0.048-0.11-0.15-0.131-0.287c-0.001-0.01-0.003-0.02-0.006-0.029C4.768,4.739,4.735,4.53,4.732,4.404c0.047-0.005,0.094-0.021,0.134-0.053c0.074-0.058,0.11-0.152,0.092-0.245C4.683,2.662,4.869,2.141,4.869,2.141z"/><path d="M12.224,9.363c-0.738-0.487-1.855-0.84-1.855-0.84C9.248,8.127,9.24,7.733,9.24,7.733c-2.203,4.344-3.876,0.014-3.876,0.014C5.21,8.333,2.941,9.021,2.941,9.021C2.278,9.275,1.998,9.657,1.998,9.657c-0.98,1.454-1.096,4.689-1.096,4.689c0.013,0.739,0.332,0.816,0.332,0.816c2.254,1.006,5.792,1.185,5.792,1.185c0.985,0.021,1.894-0.047,2.701-0.154c-0.773-0.723-1.262-1.748-1.262-2.887C8.464,11.192,10.134,9.465,12.224,9.363z"/><path d="M12.269,9.963c-1.768,0-3.207,1.438-3.207,3.207c0,1.771,1.439,3.207,3.207,3.207c1.77,0,3.207-1.437,3.207-3.207C15.476,11.402,14.038,9.963,12.269,9.963z M12.058,14.747c-0.068,0.067-0.178,0.067-0.246,0l-1.543-1.555c-0.068-0.066-0.068-0.178,0-0.245l0.369-0.369c0.068-0.067,0.178-0.067,0.246,0l1.053,1.061l2.045-2.044c0.066-0.068,0.178-0.068,0.246,0l0.367,0.367c0.068,0.068,0.068,0.18,0,0.248L12.058,14.747z"/></g></g>
    </symbol>

    <!-- ::svg-admin:: -->
    <svg version="1.1" id="svg-admin" xmlns="http://www.w3.org/2000/svg" xmlns:xlink="http://www.w3.org/1999/xlink" viewBox="0 0 225 225" fill="#1569B0">
        <use xlink:href ="#ico-admin"/>
    </svg>


    <!-- ::ico-box:: -->
    <symbol viewBox="0 0 512 512" id="ico-box">
        <polygon points="203.654 241.22 377.296 140.969 295.628 93.818 121.986 194.069 203.654 241.22"/><polygon points="197 253.344 23 153.085 23 353.619 197 453.878 197 253.344"/><rect x="351" y="356" width="19" height="19"/><path d="M211,253.344V453.878l95-54.935V254.182A30.037,30.037,0,0,1,335.891,224H360.8a24.533,24.533,0,0,1,23.417-18H384V153.085Z"/><rect x="374" y="220" width="61" height="21" rx="10.161"/><polygon points="281.628 85.735 203.654 40.717 30.013 140.969 107.986 185.987 281.628 85.735"/><path d="M472.916,238H447.733a23.942,23.942,0,0,1-23.143,17H384.217a23.944,23.944,0,0,1-23.144-17H335.891A16.022,16.022,0,0,0,320,254.182v202.1A15.628,15.628,0,0,0,335.891,472H472.916A15.793,15.793,0,0,0,489,456.282v-202.1A16.186,16.186,0,0,0,472.916,238ZM337,285.033A6.985,6.985,0,0,1,343.949,278h32.975A7.093,7.093,0,0,1,384,285.033v4.71a7.019,7.019,0,0,1-7.038,6.984A6.739,6.739,0,0,1,370.307,292H351v19h.276a7,7,0,1,1,0,14h-7.327A6.95,6.95,0,0,1,337,318.008ZM337,349a7,7,0,0,1,7-7h33a7,7,0,0,1,7,7v33a7,7,0,0,1-7,7H344a7,7,0,0,1-7-7Zm14.277,104h-7.328A6.752,6.752,0,0,1,337,446.244V413.269A7.191,7.191,0,0,1,343.949,406h32.975A7.3,7.3,0,0,1,384,413.269v6.745A7.037,7.037,0,0,1,369.929,420H351v19h.277a7,7,0,1,1,0,14Zm51.664-27.259-25.452,25.452a7,7,0,0,1-9.9,0L356.4,440.007a7,7,0,1,1,9.9-9.9l6.236,6.237,20.5-20.5a7,7,0,0,1,9.9,9.9Zm0-129.249-25.452,25.452a7,7,0,0,1-9.9,0L356.4,310.758a7,7,0,1,1,9.9-9.9l6.236,6.237,20.5-20.5a7,7,0,0,1,9.9,9.9ZM464.857,437H420.891a7,7,0,0,1,0-14h43.966a7,7,0,0,1,0,14Zm0-64H420.891a7,7,0,0,1,0-14h43.966a7,7,0,0,1,0,14Zm0-64H420.891a7,7,0,0,1,0-14h43.966a7,7,0,0,1,0,14Z"/>
    </symbol>

    <!-- ::svg-box:: -->
    <svg version="1.1" id="svg-box" xmlns="http://www.w3.org/2000/svg" xmlns:xlink="http://www.w3.org/1999/xlink" viewBox="0 0 225 225" fill="#1569B0">
        <use xlink:href ="#ico-box"/>
    </svg>


    <!-- ::ico-caja:: -->
    <symbol viewBox="0 0 512.456 512.456" id="ico-caja">
        <g><g><path d="M511.332,429.828c0.172-0.548-0.228-1.132-0.32-1.744L483.78,247.44l0.676-0.02v-99.128c0-11.012-10.78-20.064-21.8-20.064h-98.2v-48h62.156c2.212,0,5.844-1.892,5.844-4.1V4.052c0-2.208-3.632-3.824-5.844-3.824H258.904c-2.204,0-2.448,1.616-2.448,3.824v72.076c0,2.208,0.244,4.1,2.448,4.1h61.552v48h-132V84.416c0-6.616-6.412-12.188-13.036-12.188H87.28c-6.616,0-10.824,5.572-10.824,12.188v43.812H47.272c-11.008,0-18.816,9.052-18.816,20.064v99.456l-28.44,180.34c-0.092,0.608,0.232,1.196,0.396,1.744c-0.064,0.644,0.044,1.268,0.044,1.924v59.864c0,11.02,7.896,20.608,18.908,20.608H490.62c11.02,0,21.836-9.588,21.836-20.608v-59.864C512.456,431.1,511.392,430.476,511.332,429.828z M272.456,60.228v-40H375.26h27.804h9.392v40H272.456z M212.456,284.22c0-2.204,1.788-3.992,3.996-3.992h20.008c2.208,0,3.996,1.788,3.996,3.992v20.016c0,2.204-1.788,3.992-3.996,3.992h-20.008c-2.208,0-3.996-1.788-3.996-3.992V284.22z M212.456,324.22c0-2.204,1.788-3.992,3.996-3.992h20.008c2.208,0,3.996,1.788,3.996,3.992v20.016c0,2.204-1.788,3.992-3.996,3.992h-20.008c-2.208,0-3.996-1.788-3.996-3.992V324.22zM212.456,364.22c0-2.204,1.788-3.992,3.996-3.992h20.008c2.208,0,3.996,1.788,3.996,3.992v20.016c0,2.204-1.788,3.992-3.996,3.992h-20.008c-2.208,0-3.996-1.788-3.996-3.992V364.22z M96.456,384.236c0,2.204-1.788,3.992-3.996,3.992H72.452c-2.208,0-3.996-1.788-3.996-3.992V364.22c0-2.204,1.788-3.992,3.996-3.992H92.46c2.208,0,3.996,1.788,3.996,3.992V384.236z M96.456,344.236c0,2.204-1.788,3.992-3.996,3.992H72.452c-2.208,0-3.996-1.788-3.996-3.992V324.22c0-2.204,1.788-3.992,3.996-3.992H92.46c2.208,0,3.996,1.788,3.996,3.992V344.236zM96.456,304.236c0,2.204-1.788,3.992-3.996,3.992H72.452c-2.208,0-3.996-1.788-3.996-3.992V284.22c0-2.204,1.788-3.992,3.996-3.992H92.46c2.208,0,3.996,1.788,3.996,3.992V304.236z M100.456,96.228h64v84h-64V96.228zM136.456,384.236c0,2.204-1.788,3.992-3.996,3.992h-20.008c-2.208,0-3.996-1.788-3.996-3.992V364.22c0-2.204,1.788-3.992,3.996-3.992h20.008c2.208,0,3.996,1.788,3.996,3.992V384.236z M136.456,344.236c0,2.204-1.788,3.992-3.996,3.992h-20.008c-2.208,0-3.996-1.788-3.996-3.992V324.22c0-2.204,1.788-3.992,3.996-3.992h20.008c2.208,0,3.996,1.788,3.996,3.992V344.236z M136.456,304.236c0,2.204-1.788,3.992-3.996,3.992h-20.008c-2.208,0-3.996-1.788-3.996-3.992V284.22c0-2.204,1.788-3.992,3.996-3.992h20.008c2.208,0,3.996,1.788,3.996,3.992V304.236zM176.456,384.236c0,2.204-1.788,3.992-3.996,3.992h-20.008c-2.208,0-3.996-1.788-3.996-3.992V364.22c0-2.204,1.788-3.992,3.996-3.992h20.008c2.208,0,3.996,1.788,3.996,3.992V384.236z M176.456,344.236c0,2.204-1.788,3.992-3.996,3.992h-20.008c-2.208,0-3.996-1.788-3.996-3.992V324.22c0-2.204,1.788-3.992,3.996-3.992h20.008c2.208,0,3.996,1.788,3.996,3.992V344.236z M176.456,304.236c0,2.204-1.788,3.992-3.996,3.992h-20.008c-2.208,0-3.996-1.788-3.996-3.992V284.22c0-2.204,1.788-3.992,3.996-3.992h20.008c2.208,0,3.996,1.788,3.996,3.992V304.236zM328.456,464.252c0,11.032-8.944,19.976-19.976,19.976H204.432c-11.032,0-19.976-8.944-19.976-19.976v-4.048c0-11.032,8.944-19.976,19.976-19.976H308.48c11.032,0,19.976,8.944,19.976,19.976V464.252z M256.452,320.228h20.008c2.208,0,3.996,1.788,3.996,3.992v20.016c0,2.204-1.788,3.992-3.996,3.992h-20.008c-2.208,0-3.996-1.788-3.996-3.992V324.22C252.456,322.016,254.244,320.228,256.452,320.228z M252.456,304.236V284.22c0-2.204,1.788-3.992,3.996-3.992h20.008c2.208,0,3.996,1.788,3.996,3.992v20.016c0,2.204-1.788,3.992-3.996,3.992h-20.008C254.244,308.228,252.456,306.44,252.456,304.236z M256.452,360.228h20.008c2.208,0,3.996,1.788,3.996,3.992v20.016c0,2.204-1.788,3.992-3.996,3.992h-20.008c-2.208,0-3.996-1.788-3.996-3.992V364.22C252.456,362.016,254.244,360.228,256.452,360.228z M296.452,320.228h20.008c2.208,0,3.996,1.788,3.996,3.992v20.016c0,2.204-1.788,3.992-3.996,3.992h-20.008c-2.208,0-3.996-1.788-3.996-3.992V324.22C292.456,322.016,294.244,320.228,296.452,320.228z M292.456,304.236V284.22c0-2.204,1.788-3.992,3.996-3.992h20.008c2.208,0,3.996,1.788,3.996,3.992v20.016c0,2.204-1.788,3.992-3.996,3.992h-20.008C294.244,308.228,292.456,306.44,292.456,304.236z M296.452,360.228h20.008c2.208,0,3.996,1.788,3.996,3.992v20.016c0,2.204-1.788,3.992-3.996,3.992h-20.008c-2.208,0-3.996-1.788-3.996-3.992V364.22C292.456,362.016,294.244,360.228,296.452,360.228z M360.456,384.236c0,2.204-1.788,3.992-3.996,3.992h-20.008c-2.208,0-3.996-1.788-3.996-3.992V364.22c0-2.204,1.788-3.992,3.996-3.992h20.008c2.208,0,3.996,1.788,3.996,3.992V384.236zM360.456,344.236c0,2.204-1.788,3.992-3.996,3.992h-20.008c-2.208,0-3.996-1.788-3.996-3.992V324.22c0-2.204,1.788-3.992,3.996-3.992h20.008c2.208,0,3.996,1.788,3.996,3.992V344.236z M360.456,304.236c0,2.204-1.788,3.992-3.996,3.992h-20.008c-2.208,0-3.996-1.788-3.996-3.992V284.22c0-2.204,1.788-3.992,3.996-3.992h20.008c2.208,0,3.996,1.788,3.996,3.992V304.236z M400.456,384.236c0,2.204-1.788,3.992-3.996,3.992h-20.008c-2.208,0-3.996-1.788-3.996-3.992V364.22c0-2.204,1.788-3.992,3.996-3.992h20.008c2.208,0,3.996,1.788,3.996,3.992V384.236zM400.456,344.236c0,2.204-1.788,3.992-3.996,3.992h-20.008c-2.208,0-3.996-1.788-3.996-3.992V324.22c0-2.204,1.788-3.992,3.996-3.992h20.008c2.208,0,3.996,1.788,3.996,3.992V344.236z M400.456,304.236c0,2.204-1.788,3.992-3.996,3.992h-20.008c-2.208,0-3.996-1.788-3.996-3.992V284.22c0-2.204,1.788-3.992,3.996-3.992h20.008c2.208,0,3.996,1.788,3.996,3.992V304.236z M440.456,384.236c0,2.204-1.788,3.992-3.996,3.992h-20.008c-2.208,0-3.996-1.788-3.996-3.992V364.22c0-2.204,1.788-3.992,3.996-3.992h20.008c2.208,0,3.996,1.788,3.996,3.992V384.236zM440.456,344.236c0,2.204-1.788,3.992-3.996,3.992h-20.008c-2.208,0-3.996-1.788-3.996-3.992V324.22c0-2.204,1.788-3.992,3.996-3.992h20.008c2.208,0,3.996,1.788,3.996,3.992V344.236z M440.456,304.236c0,2.204-1.788,3.992-3.996,3.992h-20.008c-2.208,0-3.996-1.788-3.996-3.992V284.22c0-2.204,1.788-3.992,3.996-3.992h20.008c2.208,0,3.996,1.788,3.996,3.992V304.236z M464.456,228.236c0,2.204-1.788,3.992-3.992,3.992H228.448c-2.204,0-3.992-1.788-3.992-3.992V152.22c0-2.204,1.788-3.992,3.992-3.992h232.016c2.204,0,3.992,1.788,3.992,3.992V228.236z"/></g></g>
    </symbol>

    <!-- ::svg-caja:: -->
    <svg version="1.1" id="svg-caja" xmlns="http://www.w3.org/2000/svg" xmlns:xlink="http://www.w3.org/1999/xlink" viewBox="0 0 225 225" fill="#1569B0">
        <use xlink:href ="#ico-caja"/>
    </svg>


    <!-- ::ico-catalogo:: -->
    <symbol viewBox="0 0 296.999 296.999" id="ico-catalogo">
        <g><g><g><path d="M45.432,35.049c-0.008,0-0.017,0-0.025,0c-2.809,0-5.451,1.095-7.446,3.085c-2.017,2.012-3.128,4.691-3.128,7.543v159.365c0,5.844,4.773,10.61,10.641,10.625c24.738,0.059,66.184,5.215,94.776,35.136V84.023c0-1.981-0.506-3.842-1.461-5.382C115.322,40.849,70.226,35.107,45.432,35.049z"/><path d="M262.167,205.042V45.676c0-2.852-1.111-5.531-3.128-7.543c-1.995-1.99-4.639-3.085-7.445-3.085c-0.009,0-0.018,0-0.026,0c-24.793,0.059-69.889,5.801-93.357,43.593c-0.955,1.54-1.46,3.401-1.46,5.382v166.779c28.592-29.921,70.038-35.077,94.776-35.136C257.394,215.651,262.167,210.885,262.167,205.042z"/><path d="M286.373,71.801h-7.706v133.241c0,14.921-12.157,27.088-27.101,27.125c-20.983,0.05-55.581,4.153-80.084,27.344c42.378-10.376,87.052-3.631,112.512,2.171c3.179,0.724,6.464-0.024,9.011-2.054c2.538-2.025,3.994-5.052,3.994-8.301V82.427C297,76.568,292.232,71.801,286.373,71.801z"/><path d="M18.332,205.042V71.801h-7.706C4.768,71.801,0,76.568,0,82.427v168.897c0,3.25,1.456,6.276,3.994,8.301c2.545,2.029,5.827,2.78,9.011,2.054c25.46-5.803,70.135-12.547,112.511-2.171c-24.502-23.19-59.1-27.292-80.083-27.342C30.49,232.13,18.332,219.963,18.332,205.042z"/></g></g></g>
    </symbol>

    <!-- ::svg-catalogo:: -->
    <svg version="1.1" id="svg-catalogo" xmlns="http://www.w3.org/2000/svg" xmlns:xlink="http://www.w3.org/1999/xlink" viewBox="0 0 225 225" fill="#1569B0">
        <use xlink:href ="#ico-catalogo"/>
    </svg>


    <!-- ::ico-cliente:: -->
    <symbol  viewBox="0 0 575.969 575.969" id="ico-cliente">
        <g><g><path d="M271.029,0c-33.091,0-61,27.909-61,61s27.909,61,61,61s60-27.909,60-61S304.12,0,271.029,0z"/></g></g><g><g><path d="M337.621,122c-16.485,18.279-40.096,30-66.592,30c-26.496,0-51.107-11.721-67.592-30c-14.392,15.959-23.408,36.866-23.408,60v15c0,8.291,6.709,15,15,15h151c8.291,0,15-6.709,15-15v-15C361.029,158.866,352.013,137.959,337.621,122z"/></g></g><g><g><path d="M144.946,460.404L68.505,307.149c-7.381-14.799-25.345-20.834-40.162-13.493l-19.979,9.897c-7.439,3.689-10.466,12.73-6.753,20.156l90,180c3.701,7.423,12.704,10.377,20.083,6.738l19.722-9.771C146.291,493.308,152.354,475.259,144.946,460.404z"/></g></g><g><g><path d="M499.73,247.7c-12.301-9-29.401-7.2-39.6,3.9l-82,100.8c-5.7,6-16.5,9.6-22.2,9.6h-69.901c-8.401,0-15-6.599-15-15s6.599-15,15-15c20.09,0,42.332,0,60,0c16.5,0,30-13.5,30-30s-13.5-30-30-30c-70.446,0-3.25,0-78.6,0c-7.476,0-11.204-4.741-17.1-9.901c-23.209-20.885-57.949-30.947-93.119-22.795c-19.528,4.526-32.697,12.415-46.053,22.993l-0.445-0.361L89.016,281.03L174.28,452h25.248h146.501c28.2,0,55.201-13.5,72.001-36l87.999-126C515.929,276.799,513.229,257.601,499.73,247.7z"/></g></g>
    </symbol>

    <!-- ::svg-cliente:: -->
    <svg version="1.1" id="svg-cliente" xmlns="http://www.w3.org/2000/svg" xmlns:xlink="http://www.w3.org/1999/xlink" viewBox="0 0 225 225" fill="#1569B0">
        <use xlink:href ="#ico-cliente"/>
    </svg>


    <!-- ::ico-cotizacion:: -->
    <symbol  viewBox="0 0 25.848 25.848" id="ico-cotizacion">
        <path d="M25.839,4.958c0,3.927-1.712,6.78-1.784,6.899c-0.145,0.237-0.396,0.367-0.655,0.367c-0.136,0-0.273-0.036-0.397-0.111c-0.362-0.22-0.478-0.691-0.259-1.053c0.016-0.026,1.561-2.623,1.561-6.102c0-1.984-1.29-3.424-3.068-3.424c-1.692,0-3.068,1.376-3.068,3.069c0,0.721,0.349,2.553,0.483,3.198c0.087,0.415-0.18,0.821-0.595,0.908c-0.415,0.085-0.821-0.18-0.907-0.594c-0.053-0.253-0.517-2.502-0.517-3.512C16.633,2.065,18.698,0,21.237,0C23.86,0,25.839,2.131,25.839,4.958z M21.367,6.165c0.305,2.549,0.747,7.516,0.239,8.022L10.46,25.334c-0.685,0.686-1.798,0.686-2.484-0.001l-7.453-7.452c-0.686-0.685-0.686-1.798,0-2.484L11.67,4.251c0.177-0.177,2.105-0.185,4.273-0.072C15.931,4.322,15.9,4.457,15.9,4.603c0,0.556,0.123,1.418,0.252,2.176c-0.227,0.337-0.36,0.742-0.36,1.179c0,1.164,0.944,2.108,2.108,2.108s2.108-0.944,2.108-2.108c0-0.717-0.359-1.349-0.906-1.729C18.99,5.562,18.9,4.918,18.9,4.603c0-0.068,0.014-0.131,0.02-0.198c0.267,0.028,0.53,0.057,0.779,0.088C21.172,4.674,21.187,4.671,21.367,6.165z M15.426,14.507c-0.173-0.481-0.461-1.058-1.086-1.722l0.846-0.847l-0.942-0.941l-0.913,0.914c-1.222-0.837-2.482-0.769-3.337,0.086c-0.932,0.932-0.712,2.115-0.028,3.49c0.47,0.952,0.556,1.5,0.191,1.865c-0.375,0.375-0.98,0.212-1.529-0.336c-0.624-0.624-0.99-1.395-1.172-2.02l-1.414,0.838c0.164,0.566,0.606,1.373,1.23,2.037L6.35,18.794l0.941,0.942l0.991-0.99c1.307,0.922,2.625,0.798,3.48-0.057c0.875-0.877,0.952-1.857,0.202-3.414c-0.52-1.116-0.645-1.664-0.337-1.971c0.27-0.27,0.75-0.347,1.375,0.278c0.693,0.693,0.923,1.366,1.048,1.722L15.426,14.507z"/>
    </symbol>

    <!-- ::svg-cotizacion:: -->
    <svg version="1.1" id="svg-cotizacion" xmlns="http://www.w3.org/2000/svg" xmlns:xlink="http://www.w3.org/1999/xlink" viewBox="0 0 225 225" fill="#1569B0">
        <use xlink:href ="#ico-cotizacion"/>
    </svg>


    <!-- ::ico-conexion:: -->
    <symbol viewBox="0 0 387.359 387.359" id="ico-conexion">
        <g><path d="M102.737,365.199c-9.672,3.365-20.074,2.764-29.295-1.697c-9.219-4.459-16.148-12.242-19.513-21.914c-1.814-5.217-7.514-7.975-12.73-6.16c-5.217,1.814-7.975,7.514-6.16,12.73c5.12,14.719,15.666,26.561,29.693,33.348c8.044,3.891,16.681,5.854,25.36,5.854c6.457,0,12.939-1.086,19.217-3.272c5.216-1.814,7.974-7.514,6.158-12.73C113.652,366.143,107.956,363.381,102.737,365.199z"/><path d="M261.726,136.533c21.14,0.174,38.196,17.516,38.023,38.654c-0.045,5.523,4.395,10.037,9.918,10.082c0.027,0,0.056,0,0.084,0c5.484,0,9.953-4.424,9.998-9.918c0.264-32.166-25.691-58.553-57.857-58.818c-0.028,0-0.057,0-0.085,0c-5.483,0-9.952,4.422-9.998,9.916C251.764,131.973,256.203,136.486,261.726,136.533z"/><path d="M126.527,286.488c-0.873,0.01-1.735,0.027-2.619,0.027c-55.615,0-89.66-18.299-89.66-28.26c0-2.408,2.02-5.301,5.816-8.307c22.459,10.576,53.811,16.014,83.844,16.014c0.871,0,1.746-0.021,2.619-0.029v-47.66c-0.873,0.008-1.735,0.025-2.619,0.025c-55.615,0-89.66-18.303-89.66-28.264c0-2.406,2.02-5.299,5.816-8.303c22.459,10.574,53.811,16.014,83.844,16.014c2.042,0,4.091-0.029,6.143-0.08c3.955-6.148,10.855-10.234,18.693-10.234h44.633c5.094-1.691,9.929-3.58,14.4-5.682c2.495,1.979,4.203,3.906,5.088,5.682h25.919c-0.654-7.48-4.107-14.176-9.685-20.07c5.047-5.148,8.486-10.926,9.811-17.342l-0.004-28.203c0-8.541-3.59-16.105-9.807-22.672c5.047-5.15,8.486-10.93,9.811-17.342l-0.004-28.207C238.906,18.781,179.656,0,123.908,0C68.16,0,8.91,18.781,8.91,53.602l0.027,27.611L9,81.803c1.322,6.391,4.738,12.152,9.746,17.285c-6.24,6.584-9.836,14.17-9.836,22.73l0.027,27.615L9,150.02c1.322,6.393,4.738,12.152,9.746,17.287c-6.24,6.586-9.836,14.168-9.836,22.73l0.027,27.613L9,218.24c1.322,6.393,4.738,12.152,9.746,17.287c-6.24,6.582-9.836,14.166-9.836,22.73l0.027,27.613L9,286.457c6.267,30.352,59.234,46.682,110,47.674c2.181-2.197,4.719-4.039,7.527-5.414V286.488z M123.908,25.338c55.615,0,89.662,18.297,89.662,28.258c0,9.969-34.047,28.264-89.662,28.264c-55.615,0-89.66-18.295-89.66-28.264C34.248,43.635,68.293,25.338,123.908,25.338z M40.064,113.514c22.459,10.576,53.811,16.012,83.844,16.012c30.016,0,61.387-5.43,83.869-15.992c3.777,2.996,5.793,5.881,5.793,8.283c0,9.965-34.047,28.262-89.662,28.262c-55.615,0-89.66-18.297-89.66-28.262C34.248,119.408,36.268,116.516,40.064,113.514z"/><path d="M366.676,338.809l-3.844-0.914V209.648c0-5.357-4.359-9.717-9.717-9.717H148.744c-5.357,0-9.717,4.359-9.717,9.717v128.246l-3.844,0.914c-6.932,1.648-11.773,7.777-11.773,14.902c0,8.445,6.872,15.316,15.318,15.316h224.402c8.446,0,15.318-6.871,15.318-15.316C378.449,346.586,373.607,340.457,366.676,338.809z M339.43,339.693h-177V221.053h177V339.693z"/></g>
    </symbol>

    <!-- ::svg-conexion:: -->
    <svg version="1.1" id="svg-conexion" xmlns="http://www.w3.org/2000/svg" xmlns:xlink="http://www.w3.org/1999/xlink" viewBox="0 0 225 225" fill="#1569B0">
        <use xlink:href ="#ico-conexion"/>
    </svg>


    <!-- ::ico-conocimiento:: -->
    <symbol viewBox="0 0 31.991 31.992" id="ico-conocimiento">
        <g><g><path d="M6.952,17.189v5.014c0,0,4.808-2.003,9.071-2.003c4.263,0,9.072,2.003,9.072,2.003v-5.084c0,0-4.587-2.426-9.143-2.426C11.398,14.691,6.952,17.189,6.952,17.189z"/><path d="M30.188,15.995l1.804-0.97l-1.804-0.999v-0.474c0,0,0.508-2.576-2.379-1.229c-0.147,0.08-0.226,0.161-0.258,0.24L15.645,5.96L0,14.914l5.908,2.684v-0.871c0,0,4.957-2.783,10.038-2.783c5.08,0,10.193,2.705,10.193,2.705v1.521l3.262-1.752c0,2.029,0,6.369,0,7.093h-1.086v2.521l1.444-0.998l1.603,0.998V23.51h-1.174V15.995L30.188,15.995z M29.4,13.114c0,0.061,0,0.229,0,0.475l-0.952-0.528C28.795,12.831,29.4,12.512,29.4,13.114z M29.078,15.896c-0.421,0-0.764-0.341-0.764-0.762s0.343-0.763,0.764-0.763c0.422,0,0.763,0.342,0.763,0.763S29.5,15.896,29.078,15.896z"/></g></g>
    </symbol>

    <!-- ::svg-conocimiento:: -->
    <svg version="1.1" id="svg-conocimiento" xmlns="http://www.w3.org/2000/svg" xmlns:xlink="http://www.w3.org/1999/xlink" viewBox="0 0 225 225" fill="#1569B0">
        <use xlink:href ="#ico-conocimiento"/>
    </svg>


    <!-- ::ico-contabilidad:: -->
    <symbol viewBox="0 0 448 448" id="ico-contabilidad">
        <path d="m88 88h16.007812v16h-16.007812zm0 0"/><path d="m24 24h144v24h-144zm0 0"/><path d="m144 200h16.007812v16h-16.007812zm0 0"/><path d="m144 144h16.007812v16h-16.007812zm0 0"/><path d="m144 88h16.007812v16h-16.007812zm0 0"/><path d="m88 144h16.007812v16h-16.007812zm0 0"/><path d="m8 240h176c4.417969 0 8-3.582031 8-8v-224c0-4.417969-3.582031-8-8-8h-176c-4.417969 0-8 3.582031-8 8v224c0 4.417969 3.582031 8 8 8zm56-24c0 8.835938-7.164062 16-16 16h-16c-8.835938 0-16-7.164062-16-16v-16c0-8.835938 7.164062-16 16-16h16c8.835938 0 16 7.164062 16 16zm0-56c0 8.835938-7.164062 16-16 16h-16c-8.835938 0-16-7.164062-16-16v-16c0-8.835938 7.164062-16 16-16h16c8.835938 0 16 7.164062 16 16zm0-56c0 8.835938-7.164062 16-16 16h-16c-8.835938 0-16-7.164062-16-16v-16c0-8.835938 7.164062-16 16-16h16c8.835938 0 16 7.164062 16 16zm56 112c0 8.835938-7.164062 16-16 16h-16c-8.835938 0-16-7.164062-16-16v-16c0-8.835938 7.164062-16 16-16h16c8.835938 0 16 7.164062 16 16zm0-56c0 8.835938-7.164062 16-16 16h-16c-8.835938 0-16-7.164062-16-16v-16c0-8.835938 7.164062-16 16-16h16c8.835938 0 16 7.164062 16 16zm0-56c0 8.835938-7.164062 16-16 16h-16c-8.835938 0-16-7.164062-16-16v-16c0-8.835938 7.164062-16 16-16h16c8.835938 0 16 7.164062 16 16zm56 112c0 8.835938-7.164062 16-16 16h-16c-8.835938 0-16-7.164062-16-16v-16c0-8.835938 7.164062-16 16-16h16c8.835938 0 16 7.164062 16 16zm0-56c0 8.835938-7.164062 16-16 16h-16c-8.835938 0-16-7.164062-16-16v-16c0-8.835938 7.164062-16 16-16h16c8.835938 0 16 7.164062 16 16zm0-56c0 8.835938-7.164062 16-16 16h-16c-8.835938 0-16-7.164062-16-16v-16c0-8.835938 7.164062-16 16-16h16c8.835938 0 16 7.164062 16 16zm-168-96h176v56h-176zm0 0"/><path d="m32 144h16.007812v16h-16.007812zm0 0"/><path d="m32 200h16.007812v16h-16.007812zm0 0"/><path d="m88 200h16.007812v16h-16.007812zm0 0"/><path d="m32 88h16.007812v16h-16.007812zm0 0"/><path d="m319.59375 410.34375c-.671875.664062-1.453125 1.207031-2.3125 1.601562l-41.9375 19.3125c-3.039062 1.394532-6.628906.75-8.992188-1.617187-2.367187-2.363281-3.011718-5.953125-1.617187-8.992187l19.3125-41.9375c.394531-.859376.933594-1.640626 1.601563-2.3125l106.351562-106.335938v-142.0625h-96v-96h-88v200c0 13.253906-10.746094 24-24 24h-128v192h336v-110.054688zm-47.59375-258.34375h96v16h-96zm0 32h96v16h-96zm0 32h96v16h-96zm0 32h96v16h-96zm-104 184c-44.183594 0-80-35.816406-80-80s35.816406-80 80-80 80 35.816406 80 80c-.046875 44.164062-35.835938 79.953125-80 80zm88-168h-16v-16h16zm0-32h-16v-16h16zm0-32h-16v-16h16zm0-32h-16v-16h16zm0 0"/><path d="m312 112h68.6875l-68.6875-68.6875zm0 0"/><path d="m445.425781 261.886719c3.121094-3.121094 3.121094-8.1875 0-11.3125-3.164062-3.023438-8.144531-3.023438-11.304687 0l-5.664063 5.65625 11.3125 11.3125zm0 0"/><path d="m411.550781 273.136719 5.589844-5.585938 11.3125 11.3125-5.589844 5.589844zm0 0"/><path d="m288.328125 407.671875 20.960937-9.65625 102.261719-102.253906-11.3125-11.3125-102.253906 102.261719zm0 0"/><path d="m168 288c-35.347656 0-64 28.652344-64 64s28.652344 64 64 64 64-28.652344 64-64c-.039062-35.328125-28.671875-63.960938-64-64zm0 56c17.945312 0 32 10.535156 32 24 0 11.367188-10.070312 20.574219-24 23.199219v8.800781h-16v-8.800781c-13.929688-2.605469-24-11.816407-24-23.199219h16c0 3.265625 6.230469 8 16 8s16-4.734375 16-8-6.230469-8-16-8c-17.945312 0-32-10.535156-32-24 0-11.367188 10.070312-20.574219 24-23.199219v-8.800781h16v8.800781c13.929688 2.605469 24 11.816407 24 23.199219h-16c0-3.265625-6.230469-8-16-8s-16 4.734375-16 8 6.230469 8 16 8zm0 0"/>
    </symbol>

    <!-- ::svg-contabilidad:: -->
    <svg version="1.1" id="svg-contabilidad" xmlns="http://www.w3.org/2000/svg" xmlns:xlink="http://www.w3.org/1999/xlink" viewBox="0 0 225 225" fill="#1569B0">
        <use xlink:href ="#ico-contabilidad"/>
    </svg>


    <!-- ::ico-currency:: -->
    <symbol viewBox="0 0 354.796 354.796" id="ico-currency">
        <g><g id="Layer_5_58_"><g><g><path d="M265.442,109.092c-10.602-4.25-13.665-6.82-13.665-11.461c0-3.714,2.813-8.053,10.744-8.053c7.015,0,12.395,2.766,12.443,2.79c0.566,0.302,1.201,0.463,1.83,0.463c1.535,0,2.893-0.929,3.456-2.367l1.927-4.926c0.671-1.795-0.347-3.359-1.645-3.92c-4.319-1.88-12.76-3.335-12.846-3.35c-0.136-0.024-0.609-0.125-0.609-0.678l-0.027-7.146c0-2.152-1.797-3.904-4.003-3.904h-3.457c-2.204,0-4,1.751-4,3.905l0.009,7.513c0,0.576-0.624,0.826-0.852,0.879c-10.655,2.538-17.314,10.343-17.314,20.188c0,12.273,10.145,17.819,21.099,21.982c8.757,3.438,12.329,6.924,12.329,12.037c0,5.564-5.059,9.45-12.307,9.45c-6.189,0-14.565-3.923-14.648-3.963c-0.536-0.254-1.104-0.382-1.688-0.382c-1.594,0-2.982,0.964-3.537,2.457l-1.84,4.982c-0.654,1.86,0.353,3.37,1.642,4.042c5.144,2.679,15.098,4.249,15.541,4.318c0.119,0.017,0.725,0.23,0.725,0.784v7.48c0,2.152,1.797,3.904,4.004,3.904h3.572c2.208,0,4.005-1.751,4.005-3.904v-7.872c0-0.736,0.543-0.801,0.655-0.828c11.351-2.55,18.343-10.855,18.343-21.283C285.325,121.518,279.377,114.597,265.442,109.092z"/><path d="M260.979,22.509c-51.816,0-93.818,42.005-93.818,93.818c0,51.814,42.002,93.82,93.818,93.82c51.814,0,93.817-42.006,93.817-93.82C354.796,64.514,312.793,22.509,260.979,22.509z M260.979,188.404c-39.808,0-72.076-32.271-72.076-72.076s32.268-72.075,72.076-72.075c39.806,0,72.073,32.27,72.073,72.075S300.785,188.404,260.979,188.404z"/></g><g><path d="M335.733,255.61c-19.95,11.011-47.389,21.192-74.753,25.484c-24.346,3.818-70.148-5.39-70.148-16.265c0-4.121,40.17,10.154,64.469,3.671c18.633-4.971,15.988-22.401,5.853-24.7c-10.076-2.287-69.108-23.913-94.323-24.659c-11.878-0.351-41.203,4.131-55.393,6.442c-4.861,0.791-7.909,0.704-8.213,5.356c-1.412,21.62-4.195,65.832-5.712,88.926c-0.032,0.488,0.646,7.05,6.061,2.432c5.927-5.054,14.24-10.656,21.929-8.912c12.063,2.737,116.424,21.856,130.819,18.51c20.593-4.787,78.888-39.334,90.065-50.072C363.711,265.176,350.244,247.601,335.733,255.61z"/><path d="M74.426,224.74l-54.672-2.694c-4.221-0.208-8.532,2.973-9.581,7.066l-9.941,90.255c-1.048,4.094,1.55,7.578,5.773,7.741l60.59-0.006c4.224,0.163,7.942-3.151,8.266-7.365l6.654-86.958C81.837,228.566,78.647,224.948,74.426,224.74z M42.24,315.145c-8.349,0-15.116-6.768-15.116-15.116c0-8.349,6.768-15.116,15.116-15.116s15.116,6.768,15.116,15.116C57.356,308.378,50.589,315.145,42.24,315.145z"/></g></g></g></g>
    </symbol>

    <!-- ::svg-currency:: -->
    <svg version="1.1" id="svg-currency" xmlns="http://www.w3.org/2000/svg" xmlns:xlink="http://www.w3.org/1999/xlink" viewBox="0 0 225 225" fill="#1569B0">
        <use xlink:href ="#ico-currency"/>
    </svg>


    <!-- ::ico-departamento:: -->
    <symbol  viewBox="0 0 502.66 502.66" id="ico-departamento">
        <path d="M76.945,0l20.75,426.728l30.726-1.492L109.239,30.762h284.112l-2.973,58.468l-9.053-0.002l2.65-52.072l-255.164,70.203l20.489,395.301l214.285-79.586l3.213-48.492h9.072l-2.574,50.619l30.726,1.562L425.715,0H76.945z M169.295,308.826c-5.922,0-10.723-6.045-10.723-13.504c0-7.455,4.801-13.5,10.723-13.5c5.922,0,10.723,6.045,10.723,13.5C180.018,302.781,175.217,308.826,169.295,308.826z M368.844,324.623l9.939-185.441l9.057,0.002l-9.428,185.441L368.844,324.623z"/>
    </symbol>

    <!-- ::svg-departamento:: -->
    <svg version="1.1" id="svg-departamento" xmlns="http://www.w3.org/2000/svg" xmlns:xlink="http://www.w3.org/1999/xlink" viewBox="0 0 225 225" fill="#1569B0">
        <use xlink:href ="#ico-departamento"/>
    </svg>


    <!-- ::ico-empleado:: -->
    <symbol  viewBox="0 -31 512 512" id="ico-empleado">
        <path d="m211 240h90v30h-90zm0 0"/><path d="m415.378906 270h-84.378906v15c0 8.289062-6.710938 15-15 15h-120c-8.289062 0-15-6.710938-15-15v-15h-84.378906c-19.394532 0-36.546875-12.363281-42.6875-30.761719l-53.933594-161.828125v327.589844c0 24.8125 20.1875 45 45 45h422c24.8125 0 45-20.1875 45-45v-327.578125l-53.9375 161.816406c-6.136719 18.398438-23.289062 30.761719-42.683594 30.761719zm0 0"/><path d="m316 0h-120c-24.8125 0-45 20.1875-45 45v15h-125.191406l56.574218 169.746094c2.050782 6.136718 7.777344 10.253906 14.238282 10.253906h84.378906v-15c0-8.289062 6.710938-15 15-15h120c8.289062 0 15 6.710938 15 15v15h84.378906c6.460938 0 12.1875-4.117188 14.238282-10.253906l56.578124-169.746094h-125.195312v-15c0-24.8125-20.1875-45-45-45zm-135 60v-15c0-8.277344 6.722656-15 15-15h120c8.277344 0 15 6.722656 15 15v15zm0 0"/>
    </symbol>

    <!-- ::svg-empleado:: -->
    <svg version="1.1" id="svg-empleado" xmlns="http://www.w3.org/2000/svg" xmlns:xlink="http://www.w3.org/1999/xlink" viewBox="0 0 225 225" fill="#1569B0">
        <use xlink:href ="#ico-empleado"/>
    </svg>


    <!-- ::ico-empresa:: -->
    <symbol viewBox="0 0 575.969 575.969" id="ico-empresa">
        <g><path d="M131.012,438.372h85.624v-87.557h51.467v87.557h85.624V46.366H131.012V438.372z M257.993,92.564h51.466v51.467h-51.466V92.564z M257.993,175.279h51.466v51.467h-51.466V175.279z M257.993,257.992h51.466v51.467h-51.466V257.992z M175.279,92.564h51.466v51.467h-51.466V92.564z M175.279,175.279h51.466v51.467h-51.466V175.279z M175.279,257.992h51.466v51.467h-51.466V257.992z"/><path d="M373.719,81.482V358.66h33.065v79.712h77.954V81.482H373.719z M444.437,321.009H397.58v-46.856h46.856V321.009zM444.437,245.703H397.58v-46.855h46.856V245.703z M444.437,170.398H397.58v-46.855h46.856V170.398z"/><path d="M0,438.372h77.954V358.66h33.065V81.482H0V438.372z M40.302,123.543h46.856v46.855H40.302V123.543z M40.302,198.848h46.856v46.855H40.302V198.848z M40.302,274.151h46.856v46.855H40.302V274.151z"/></g>
    </symbol>

    <!-- ::svg-empresa:: -->
    <svg version="1.1" id="svg-empresa" xmlns="http://www.w3.org/2000/svg" xmlns:xlink="http://www.w3.org/1999/xlink" viewBox="0 0 225 225" fill="#1569B0">
        <use xlink:href ="#ico-empresa"/>
    </svg>


    <!-- ::ico-incapacidad:: -->
    <symbol viewBox="0 0 512.023 512.023" id="ico-incapacidad">
        <g><path d="m179.031 241.079h154.024v30.018h-154.024z" transform="matrix(.707 -.707 .707 .707 -106.088 256.056)"/><path d="m179.369 481.238 301.839-301.824c40.928-40.928 40.928-107.549 0-148.491-40.942-40.913-107.549-40.942-148.491 0l-301.824 301.839c-41.06 41.028-41.032 107.444 0 148.477 41.043 41.042 107.459 41.046 148.476-.001zm237.195-364.459c5.858-5.858 15.355-5.858 21.215 0 5.858 5.858 5.858 15.355 0 21.213-5.859 5.858-15.357 5.858-21.215 0s-5.857-15.355 0-21.213zm-236.187 278.614c-5.858 5.858-15.355 5.858-21.213 0s-5.858-15.355 0-21.213 15.355-5.858 21.213 0c5.859 5.857 5.859 15.355 0 21.213zm193.762-321.041c5.858-5.858 15.355-5.858 21.213 0s5.858 15.355 0 21.213c-5.858 5.859-15.355 5.859-21.213 0-5.858-5.858-5.858-15.355 0-21.213zm0 84.853c5.858-5.858 15.355-5.858 21.213 0s5.858 15.355 0 21.213c-5.858 5.859-15.355 5.859-21.213 0-5.858-5.858-5.858-15.356 0-21.213zm-42.428-42.426c5.858-5.858 15.355-5.858 21.215 0 5.858 5.858 5.858 15.355 0 21.213-5.859 5.858-15.357 5.858-21.215 0s-5.857-15.355 0-21.213zm-172.553 172.546 130.122-130.122c5.859-5.859 15.352-5.859 21.211 0l42.437 42.437c5.859 5.859 5.859 15.352 0 21.211l-130.122 130.122c-5.859 5.859-15.352 5.859-21.211 0l-42.437-42.437c-5.859-5.859-5.859-15.351 0-21.211zm-42.42 42.428c5.858-5.858 15.355-5.858 21.213 0 5.858 5.859 5.858 15.355 0 21.215-5.858 5.858-15.355 5.858-21.213 0-5.859-5.86-5.859-15.356 0-21.215zm0 84.852c5.858-5.858 15.355-5.858 21.213 0 5.858 5.859 5.858 15.355 0 21.215-5.858 5.858-15.355 5.858-21.213 0-5.859-5.859-5.859-15.355 0-21.215zm-42.427-42.425c5.858-5.858 15.355-5.858 21.213 0 5.859 5.858 5.859 15.355 0 21.213-5.858 5.858-15.355 5.858-21.213 0s-5.858-15.356 0-21.213z"/><path d="m481.208 332.762-55.465-55.465-148.493 148.486 55.467 55.456c41.019 41.049 107.446 41.045 148.491 0 40.943-40.928 40.943-107.55 0-148.477z"/><path d="m30.916 30.696c-41.041 41.039-41.052 107.468 0 148.491l55.427 55.688 148.489-148.489-55.44-55.69c-40.927-40.928-107.548-40.928-148.476 0z"/></g>
    </symbol>

    <!-- ::svg-incapacidad:: -->
    <svg version="1.1" id="svg-incapacidad" xmlns="http://www.w3.org/2000/svg" xmlns:xlink="http://www.w3.org/1999/xlink" viewBox="0 0 225 225" fill="#1569B0">
        <use xlink:href ="#ico-incapacidad"/>
    </svg>


    <!-- ::ico-menu:: -->
    <symbol viewBox="0 0 28 28" id="ico-menu">
        <path d="M15,18v-4h-4v8l4,0.001V20h8v8h-8v-4H9V8H5V0h8v8h-2v4h4v-2h8v8H15z"/>
    </symbol>

    <!-- ::svg-menu:: -->
    <svg version="1.1" id="svg-menu" xmlns="http://www.w3.org/2000/svg" xmlns:xlink="http://www.w3.org/1999/xlink" viewBox="0 0 225 225" fill="#1569B0">
        <use xlink:href ="#ico-menu"/>
    </svg>


    <!-- ::ico-marca:: -->
    <symbol viewBox="0 0 60 60" id="ico-marca">
        <path d="M59.206,0.293c-0.391-0.391-1.023-0.391-1.414,0L54.085,4H30.802L1.533,33.511c-1.376,1.376-1.376,3.614,0,4.99l20.466,20.466C22.664,59.633,23.551,60,24.494,60s1.829-0.367,2.505-1.043l28.501-29.271V5.414l3.707-3.707C59.597,1.316,59.597,0.684,59.206,0.293z M44.499,20c-2.757,0-5-2.243-5-5s2.243-5,5-5s5,2.243,5,5S47.256,20,44.499,20z"/>
    </symbol>

    <!-- ::svg-marca:: -->
    <svg version="1.1" id="svg-marca" xmlns="http://www.w3.org/2000/svg" xmlns:xlink="http://www.w3.org/1999/xlink" viewBox="0 0 225 225" fill="#1569B0">
        <use xlink:href ="#ico-marca"/>
    </svg>


    <!-- ::ico-paquete:: -->
    <symbol viewBox="0 0 612 612" id="ico-paquete">
        <g><path d="M289.052,191.691l-36.224,87.974c-1.228,2.983-4.017,5.033-7.23,5.315L60.311,301.262c-4.546,0.399-7.996,4.266-7.877,8.826l3.768,145.442c0.104,3.999,2.941,7.403,6.856,8.228l218.13,45.882c5.333,1.122,10.753,1.677,16.173,1.665l0.004-43.135V193.336C297.363,181.33,293.623,180.59,289.052,191.691z M263.687,462.923l-81.886-13.187v-42.921h81.886V462.923z M227.882,264.073L9.518,286.138c-6.671,0.674-11.532-6.18-8.69-12.252L58.973,149.6c1.183-2.529,3.516-4.331,6.262-4.835l239.934-44.069l-70.262,158.29C233.649,261.819,230.968,263.761,227.882,264.073zM551.689,301.262l-185.286-16.281c-3.214-0.282-6.003-2.332-7.23-5.315l-36.225-87.974c-4.571-11.102-8.312-10.362-8.312,1.644v274.833l0.004,43.135c5.419,0.013,10.84-0.543,16.174-1.665l218.13-45.882c3.915-0.824,6.752-4.229,6.855-8.228l3.768-145.441C559.686,305.527,556.234,301.661,551.689,301.262z M475.437,378.948l-10.233,0.283l-0.207,64.406c-0.009,2.837-2.891,5.55-6.475,6.065l-16.771,2.412c-3.831,0.551-6.966-1.412-6.959-4.392l0.156-67.651l-11.705,0.324c-5.691,0.157-9.292-4.406-6.395-8.183l27.837-36.274c2.637-3.438,9.109-3.121,11.651,0.501l24.435,34.825C483.087,374.567,480.158,378.816,475.437,378.948z M602.481,286.138l-218.364-22.065c-3.086-0.312-5.768-2.254-7.025-5.088l-70.261-158.29l239.934,44.069c2.746,0.504,5.079,2.306,6.263,4.835l58.145,124.286C614.014,279.958,609.152,286.812,602.481,286.138z"/></g>
    </symbol>

    <!-- ::svg-paquete:: -->
    <svg version="1.1" id="svg-paquete" xmlns="http://www.w3.org/2000/svg" xmlns:xlink="http://www.w3.org/1999/xlink" viewBox="0 0 225 225" fill="#1569B0">
        <use xlink:href ="#ico-paquete"/>
    </svg>


    <!-- ::ico-proceso:: -->
    <symbol viewBox="0 0 14.155 14.155" id="ico-proceso">
        <g><path d="M12.083,1.887c-0.795-0.794-1.73-1.359-2.727-1.697v2.135c0.48,0.239,0.935,0.55,1.334,0.95c1.993,1.994,1.993,5.236,0,7.229c-1.993,1.99-5.233,1.99-7.229,0c-1.991-1.995-1.991-5.235,0-7.229C3.466,3.269,3.482,3.259,3.489,3.25h0.002l1.181,1.179L4.665,0.685L0.923,0.68l1.176,1.176C2.092,1.868,2.081,1.88,2.072,1.887c-2.763,2.762-2.763,7.243,0,10.005c2.767,2.765,7.245,2.765,10.011,0C14.844,9.13,14.847,4.649,12.083,1.887z"/></g>
    </symbol>

    <!-- ::svg-proceso:: -->
    <svg version="1.1" id="svg-proceso" xmlns="http://www.w3.org/2000/svg" xmlns:xlink="http://www.w3.org/1999/xlink" viewBox="0 0 225 225" fill="#1569B0">
        <use xlink:href ="#ico-proceso"/>
    </svg>


    <!-- ::ico-proyecto:: -->
    <symbol viewBox="0 0 192 192" id="ico-proyecto">
        <g id="_26-screen" data-name="26-screen"><path d="m146.161 31.826-42.161-28.107v-3.719h-16v3.719l-42.161 28.107h-45.839v16h192v-16zm-28.844 0h-13.317v-8.878zm-29.317-8.878v8.878h-13.317z"/><path d="m8 152a8 8 0 0 0 8 8h72v16h-16v16h48v-16h-16v-16h72a8 8 0 0 0 8-8v-96h-176zm104-80h56v16h-56zm0 24h40v16h-40zm0 24h24v16h-24zm-56-48v32h32a32 32 0 1 1 -32-32z"/></g>
    </symbol>

    <!-- ::svg-proyecto:: -->
    <svg version="1.1" id="svg-proyecto" xmlns="http://www.w3.org/2000/svg" xmlns:xlink="http://www.w3.org/1999/xlink" viewBox="0 0 225 225" fill="#1569B0">
        <use xlink:href ="#ico-proyecto"/>
    </svg>


    <!-- ::ico-puesto:: -->
    <symbol viewBox="-21 -35 682.66923 682" id="ico-puesto">
        <path d="m302.234375 149.597656c0-10.355468 8.398437-18.75 18.75-18.75 10.355469 0 18.75 8.394532 18.75 18.75v16.265625h216v-61.957031c0-22.902344-18.632813-41.535156-41.53125-41.535156h-57.804687v-14.070313c0-26.953125-21.953126-48.882812-48.933594-48.882812h-173.394532c-26.980468 0-48.933593 21.929687-48.933593 48.882812v14.070313h-57.804688c-22.894531 0-41.527343 18.632812-41.527343 41.535156v61.957031h216.429687zm-79.597656-101.296875c0-6.277343 5.125-11.382812 11.433593-11.382812h173.394532c6.308594 0 11.433594 5.105469 11.433594 11.382812v14.070313h-196.261719zm0 0"/><path d="m549.515625 431.203125c-43.453125 0-79.839844 30.753906-88.511719 71.605469h-52.554687c-7.382813-34.773438-34.855469-62.214844-69.667969-69.617188v-50.933594h175.421875c22.898437 0 41.53125-18.632812 41.53125-41.527343v-137.367188h-216v16.269531c0 10.351563-8.394531 18.75-18.75 18.75-10.351563 0-18.75-8.398437-18.75-18.75v-16.269531h-216.429687v137.367188c0 22.894531 18.628906 41.527343 41.527343 41.527343h173.949219v50.890626c-34.90625 7.332031-62.464844 34.816406-69.855469 69.660156h-52.421875c-8.671875-40.851563-45.070312-71.605469-88.519531-71.605469-49.894531 0-90.484375 40.539063-90.484375 90.359375s40.589844 90.351562 90.484375 90.351562c42.664063 0 79.015625-30.761718 88.242187-71.605468h52.695313c8.664063 40.855468 45.054687 71.605468 88.507813 71.605468 42.667968 0 79.019531-30.761718 88.242187-71.605468h52.832031c8.667969 40.855468 45.058594 71.605468 88.511719 71.605468 48.613281 0 89.027344-39.929687 90.460937-89.179687.015626-.3125.027344-.625.027344-.941406v-.230469c-.007812-49.820312-40.597656-90.359375-90.488281-90.359375zm0 0"/>
    </symbol>

    <!-- ::svg-puesto:: -->
    <svg version="1.1" id="svg-puesto" xmlns="http://www.w3.org/2000/svg" xmlns:xlink="http://www.w3.org/1999/xlink" viewBox="0 0 225 225" fill="#1569B0">
        <use xlink:href ="#ico-puesto"/>
    </svg>


    <!-- ::ico-punto-venta:: -->
    <symbol viewBox="0 0 125.2 125.2" id="ico-punto-venta">
        <g><g><rect x="46.704" y="53.814" width="8.065" height="14.786"/><path d="M97.305,9.683C97.283,3.496,93.715,0,87.512,0L51.317,0.056c-6.974,0-12.647,5.673-12.647,12.647v27.284h3.036V12.704c0-5.3,4.312-9.611,9.611-9.611h27.998c-1.691,2.354-1.691,5.621-1.691,9.611v27.284h3.034V18.267l13.123-0.005c0.577,0,1.483-0.124,2.262-0.775c0.576-0.481,1.265-1.417,1.261-3.044C97.46,11.942,97.334,10.058,97.305,9.683z M94.424,14.352c0,0.452-0.084,0.796-0.226,0.92c-0.127,0.112-0.406,0.124-0.479,0.11l-13.062,0.005v-2.684c0-2.343,0.025-4.085,0.234-5.422c0.725-2.973,2.892-4.452,6.619-4.452c4.651,0,6.914,2.262,6.914,6.913l0.006,0.124C94.432,9.885,94.586,11.749,94.424,14.352z"/><path d="M59.1,28.638h14.222c0.839,0,1.52-0.68,1.52-1.517c0-0.839-0.681-1.518-1.52-1.518H59.1V28.638z"/><rect x="51.433" y="25.604" width="5.667" height="3.034"/><path d="M45.499,28.638h3.934v-3.034h-3.934c-0.838,0-1.518,0.679-1.518,1.518C43.982,27.958,44.662,28.638,45.499,28.638z"/><rect x="72.247" y="53.814" width="8.065" height="14.786"/><path d="M43.982,15.233c0,0.838,0.68,1.518,1.518,1.518h7.268v-3.035H45.5C44.662,13.715,43.982,14.396,43.982,15.233z"/><path d="M84.668,25.658v18.948H35.434V25.658c-4.32,0.727-7.614,4.474-7.614,8.999v81.405c0,5.047,4.09,9.138,9.137,9.138h46.188c5.047,0,9.138-4.091,9.138-9.138V34.657C92.282,30.131,88.987,26.384,84.668,25.658z M49.791,116.245h-8.692v-8.69h8.692V116.245z M49.791,100.506h-8.692v-8.688h8.692V100.506z M49.791,85.465h-8.692v-8.689h8.692V85.465z M64.273,116.245h-8.689v-8.69h8.689V116.245z M64.273,100.506h-8.689v-8.688h8.689V100.506z M64.273,85.465h-8.689v-8.689h8.689V85.465z M79,116.245h-8.691v-8.69H79V116.245z M79,100.506h-8.691v-8.688H79V100.506z M79,85.465h-8.691v-8.689H79V85.465z M84.076,71.299H35.01V51.674h49.065L84.076,71.299L84.076,71.299z"/><rect x="54.767" y="13.715" width="10.667" height="3.035"/><path d="M74.84,15.233c0-0.837-0.68-1.518-1.519-1.518h-5.89v3.035h5.89C74.161,16.75,74.84,16.071,74.84,15.233z"/><rect x="59.378" y="53.814" width="8.065" height="14.786"/></g></g>
    </symbol>

    <!-- ::svg-punto-venta:: -->
    <svg version="1.1" id="svg-punto-venta" xmlns="http://www.w3.org/2000/svg" xmlns:xlink="http://www.w3.org/1999/xlink" viewBox="0 0 225 225" fill="#1569B0">
        <use xlink:href ="#ico-punto-venta"/>
    </svg>


    <!-- ::ico-rel-menu:: -->
    <symbol viewBox="0 0 375.65 375.65" id="ico-rel-menu">
        <g><path d="M194.351,269.677c-1.733-0.607-3.589-0.953-5.53-0.953h-19.58v-22.448h40.139c8.4-7.609,18.854-12.316,29.777-15.556c-2.852-4.102-5.327-8.538-7.391-13.231H28.786V76.537h233.265v35.611c8.633-3.388,18.456-5.24,28.785-5.24h0.001V72.566c0-13.705-11.109-24.815-24.815-24.815H24.815C11.109,47.751,0,58.861,0,72.566v148.893c0,13.705,11.109,24.816,24.815,24.816h96.781v22.448h-19.581c-9.256,0-16.758,7.503-16.758,16.759c0,9.256,7.502,16.76,16.758,16.76h86.805c0.285,0,0.563-0.028,0.844-0.042C190.154,289.772,191.222,279.143,194.351,269.677z"/><g><path d="M375.576,315.93c-0.471-24.605-0.783-40.858-8.455-52.924c-8.802-13.843-25.481-19.321-49.574-23.673c-0.008-0.001-0.018-0.003-0.025-0.005c-0.275-0.054-2.522-0.485-6.674-0.906c-1.466-0.072-2.227-3.047-0.396-3.952c17.852-9.235,29.756-30.933,29.756-54.477c0-19.483-2.715-32.335-8.803-41.668c-7.546-11.566-24.229-17.56-40.568-17.56c-16.338,0-33.021,5.993-40.566,17.56c-6.09,9.333-8.805,22.185-8.805,41.668c0,23.544,11.906,45.241,29.758,54.477c1.828,0.905,1.068,3.88-0.396,3.952c-4.154,0.421-6.398,0.852-6.674,0.906c-0.009,0.002-0.018,0.004-0.025,0.005c-24.094,4.352-40.774,9.83-49.574,23.673c-7.672,12.065-7.984,28.319-8.456,52.924l-0.071,3.693c-0.043,2.18,0.792,4.284,2.318,5.843c1.527,1.557,3.615,2.434,5.795,2.434h153.395c2.182,0,4.27-0.877,5.795-2.434c1.527-1.559,2.363-3.663,2.32-5.843L375.576,315.93z"/></g><g><path d="M182.443,120.273c1.365-1.364,3.576-1.364,4.941,0l4.096,4.096l2.457-2.456c2.371-2.374,2.371-6.222,0-8.596l-8.604-8.604l-5.184-5.181c-2.373-2.375-6.221-2.375-8.596,0l-5.182,5.181l-14.465,14.465l-24.125,24.124l-3.711-3.711c-5.621-5.621-14.734-5.621-20.358,0l-15.266,15.268c-5.621,5.621-5.623,14.734,0,20.355l18.32,18.32c5.621,5.622,14.736,5.622,20.354,0.002l15.269-15.268c5.619-5.621,5.619-14.733,0-20.357l-3.435-3.434l19.827-19.828l6.91,6.908c2.373,2.375,6.223,2.374,8.596,0l3.008-3.008l-7.252-7.25c-1.363-1.366-1.363-3.578,0-4.942c1.363-1.365,3.578-1.366,4.943,0sl7.252,7.251l4.297-4.297l-4.096-4.096C181.078,123.851,181.078,121.638,182.443,120.273z M120.183,179.408l-2.285,2.286c-1.402,1.404-3.677,1.404-5.08,0l-12.527-12.528c-1.405-1.403-1.405-3.678-0.002-5.081l2.286-2.285c1.402-1.402,3.677-1.402,5.079,0l12.529,12.529C121.588,175.731,121.588,178.006,120.183,179.408z"/></g></g>
    </symbol>

    <!-- ::svg-rel-menu:: -->
    <svg version="1.1" id="svg-rel-menu" xmlns="http://www.w3.org/2000/svg" xmlns:xlink="http://www.w3.org/1999/xlink" viewBox="0 0 225 225" fill="#1569B0">
        <use xlink:href ="#ico-rel-menu"/>
    </svg>


    <!-- ::ico-rebaja -->
    <symbol viewBox="0 0 512 512" id="ico-rebaja">
        <path d="m214.388 89.059c.878.335 1.78.493 2.668.493 3.021 0 5.87-1.84 7.01-4.833l2.808-7.372h19.632l2.775 7.351c1.462 3.875 5.791 5.832 9.665 4.368 3.875-1.462 5.831-5.789 4.368-9.665l-18.493-49.002c-.025-.067-.052-.135-.079-.202-1.335-3.249-4.467-5.347-7.979-5.347-.003 0-.006 0-.008 0-3.516.003-6.648 2.107-7.978 5.361-.022.056-.045.112-.066.169l-18.662 49c-1.476 3.871.468 8.204 4.339 9.679zm26.455-26.712h-8.257l4.147-10.89z"  data-original="#000000" style="" class=""/><path d="m286.167 89.398c.541.094.898.155 6.472.155 2.679 0 6.561-.014 12.247-.046 4.143-.023 7.481-3.4 7.458-7.542-.023-4.128-3.376-7.458-7.499-7.458-.015 0-.029 0-.043 0-3.354.019-6.889.033-9.861.039v-42.196c0-4.143-3.357-7.5-7.5-7.5-4.142 0-7.5 3.357-7.5 7.5v49.658c-.001 3.65 2.628 6.771 6.226 7.39z" data-original="#000000" style="" class=""/><path d="m335.954 89.55h20.751c4.143 0 7.5-3.357 7.5-7.5s-3.357-7.5-7.5-7.5h-13.251v-9.623h11.721c4.143 0 7.5-3.358 7.5-7.5 0-4.143-3.357-7.5-7.5-7.5h-11.721v-9.623h13.251c4.143 0 7.5-3.357 7.5-7.5s-3.357-7.5-7.5-7.5h-20.751c-4.143 0-7.5 3.357-7.5 7.5v49.246c0 4.142 3.357 7.5 7.5 7.5z"  data-original="#000000" style="" class=""/><path d="m194.796 72.597c1.328-7.442-1.985-17.142-15.27-22.041-5.88-2.169-11.369-4.526-13.283-5.362-.696-.645-.705-1.477-.638-1.949.091-.633.57-2.184 3.05-2.932 6.315-1.906 12.299 2.772 12.495 2.928 3.172 2.623 7.867 2.2 10.518-.956 2.665-3.171 2.255-7.901-.916-10.566-.49-.413-12.19-10.054-26.424-5.769-7.347 2.214-12.547 8.023-13.571 15.164-.966 6.729 1.953 13.205 7.618 16.898.331.216.679.405 1.04.566.289.129 7.172 3.192 14.919 6.05 3.015 1.112 6.094 3.097 5.694 5.332-.331 1.851-2.916 4.59-7.415 4.59-4.582 0-8.979-1.833-11.763-4.904-2.782-3.069-7.526-3.301-10.594-.52-3.069 2.782-3.302 7.524-.52 10.594 5.663 6.247 14.001 9.83 22.876 9.83 11.101 0 20.43-7.13 22.184-16.953z" data-original="#000000" style="" class=""/><path d="m495.434 226.38c10.149-8.97 16.566-22.07 16.566-36.647v-66.833c0-12.958-10.542-23.5-23.5-23.5h-92.467v-75.9c0-12.958-10.542-23.5-23.5-23.5h-233.066c-12.958 0-23.5 10.542-23.5 23.5v75.9h-51.05c-4.143 0-7.5 3.357-7.5 7.5s3.357 7.5 7.5 7.5h17.916v67.833h-67.833v-59.333c0-4.687 3.813-8.5 8.5-8.5h11.417c4.143 0 7.5-3.357 7.5-7.5s-3.357-7.5-7.5-7.5h-11.417c-12.958 0-23.5 10.542-23.5 23.5v66.833c0 14.577 6.418 27.677 16.566 36.647v237.486h-1.066c-8.547 0-15.5 6.953-15.5 15.5v17.134c0 8.547 6.953 15.5 15.5 15.5h59.393c4.143 0 7.5-3.357 7.5-7.5s-3.357-7.5-7.5-7.5h-59.393c-.275 0-.5-.225-.5-.5v-17.134c0-.275.225-.5.5-.5h481c.275 0 .5.225.5.5v17.134c0 .275-.225.5-.5.5h-391.607c-4.143 0-7.5 3.357-7.5 7.5s3.357 7.5 7.5 7.5h391.607c8.547 0 15.5-6.953 15.5-15.5v-17.134c0-8.547-6.953-15.5-15.5-15.5h-1.066zm-479.588-29.147h66.141c-3.424 15.104-16.947 26.417-33.07 26.417-16.125 0-29.647-11.313-33.071-26.417zm107.621-82.833h42.2v67.833h-67.834v-67.833zm125.033 0v67.833h-67.833v-67.833zm82.833 0v67.833h-67.833v-67.833zm-166.512 82.833c-3.424 15.104-16.947 26.417-33.071 26.417s-29.647-11.314-33.071-26.417zm82.833 0c-3.424 15.104-16.947 26.417-33.071 26.417-16.123 0-29.646-11.314-33.07-26.417zm82.833 0c-3.424 15.104-16.947 26.417-33.07 26.417-16.124 0-29.647-11.314-33.071-26.417zm132.596 26.417c-16.124 0-29.646-11.314-33.07-26.417h66.141c-3.424 15.104-16.947 26.417-33.071 26.417zm33.917-100.75v59.333h-67.833v-67.833h59.333c4.686 0 8.5 3.814 8.5 8.5zm-82.833 59.333h-67.834v-67.833h42.2 25.634zm-.846 15c-3.424 15.104-16.947 26.417-33.071 26.417s-29.647-11.314-33.071-26.417zm-282.354-173.733c0-4.687 3.814-8.5 8.5-8.5h233.066c4.686 0 8.5 3.813 8.5 8.5v75.9h-250.066zm-82.05 215.15c17.431 0 32.751-9.172 41.416-22.935 8.666 13.764 23.986 22.935 41.417 22.935s32.751-9.172 41.417-22.935c8.665 13.764 23.985 22.935 41.416 22.935s32.752-9.172 41.417-22.935c8.665 13.764 23.986 22.935 41.417 22.935s32.751-9.172 41.416-22.935c8.665 13.764 23.986 22.935 41.417 22.935s32.751-9.172 41.417-22.935c8.665 13.764 23.985 22.935 41.416 22.935 6.109 0 11.954-1.135 17.351-3.19v178.706h-158.95v-133.6c0-8.547-6.953-15.5-15.5-15.5h-99.967c-8.547 0-15.5 6.953-15.5 15.5v133.601h-158.951v-178.707c5.397 2.055 11.242 3.19 17.351 3.19zm-17.351 190.517h158.95v34.699h-158.95zm173.951 34.699v-183.3c0-.275.225-.5.5-.5h99.967c.275 0 .5.225.5.5v183.3zm115.966 0v-34.699h158.95v34.699z"  data-original="#000000" style="" class=""/><path d="m280.85 360.325c-4.143 0-7.5 3.357-7.5 7.5v8.283c0 4.143 3.357 7.5 7.5 7.5s7.5-3.357 7.5-7.5v-8.283c0-4.142-3.358-7.5-7.5-7.5z" data-original="#000000" style="" class=""/><path d="m65.2 396.033h83.4c8.547 0 15.5-6.953 15.5-15.5v-83.399c0-8.547-6.953-15.5-15.5-15.5h-83.4c-8.547 0-15.5 6.953-15.5 15.5v83.399c0 8.547 6.953 15.5 15.5 15.5zm-.5-98.899c0-.275.225-.5.5-.5h83.4c.275 0 .5.225.5.5v83.399c0 .275-.225.5-.5.5h-83.4c-.275 0-.5-.225-.5-.5z"  data-original="#000000" style="" class=""/><path d="m363.4 396.033h83.4c8.547 0 15.5-6.953 15.5-15.5v-83.399c0-8.547-6.953-15.5-15.5-15.5h-83.4c-8.547 0-15.5 6.953-15.5 15.5v83.399c0 8.547 6.953 15.5 15.5 15.5zm-.5-98.899c0-.275.225-.5.5-.5h83.4c.275 0 .5.225.5.5v83.399c0 .275-.225.5-.5.5h-83.4c-.275 0-.5-.225-.5-.5z"  data-original="#000000" style="" class=""/>
    </symbol>

    <!-- ::svg-rebaja:: -->
    <svg version="1.1" id="svg-rebaja" xmlns="http://www.w3.org/2000/svg" xmlns:xlink="http://www.w3.org/1999/xlink" viewBox="0 0 225 225" fill="#1569B0">
        <use xlink:href ="#ico-rebaja"/>
    </svg>


    <!-- ::ico-reporte:: -->
    <symbol viewBox="0 0 192 192" id="ico-reporte">
        <path d="m80 0h32a8 8 0 0 1 8 8v24a0 0 0 0 1 0 0h-48a0 0 0 0 1 0 0v-24a8 8 0 0 1 8-8z"/><path d="m160 16h-32v16a8 8 0 0 1 -8 8h-48a8 8 0 0 1 -8-8v-16h-32a8 8 0 0 0 -8 8v160a8 8 0 0 0 8 8h128a8 8 0 0 0 8-8v-160a8 8 0 0 0 -8-8zm-60 40.259a31.988 31.988 0 0 1 27.384 37.986l-27.384-9.128zm-8 0v31.741a4 4 0 0 0 2.735 3.8l30.117 10.039a32 32 0 1 1 -32.852-45.58zm52 119.741h-96v-8h16v-16h16v16h8v-24h16v24h8v-32h16v32h16z"/>
    </symbol>

    <!-- ::svg-reporte:: -->
    <svg version="1.1" id="svg-reporte" xmlns="http://www.w3.org/2000/svg" xmlns:xlink="http://www.w3.org/1999/xlink" viewBox="0 0 225 225" fill="#1569B0">
        <use xlink:href ="#ico-reporte"/>
    </svg>


    <!-- ::ico-sucursal:: -->
    <symbol viewBox="0 0 575.969 575.969" id="ico-sucursal">
        <path d="m0 90h90v46h-90zm0 0"/><path d="m0 166h90v45h-90zm0 0"/><path d="m90 391h61v121h-61zm0 0"/><path d="m505.992188 244.003906-121-90c-4.523438-3.429687-10.601563-3.957031-15.703126-1.421875-5.082031 2.550781-8.289062 7.734375-8.289062 13.417969v60l-96.007812-71.996094c-4.523438-3.429687-10.601563-3.957031-15.703126-1.421875-5.082031 2.550781-8.289062 7.734375-8.289062 13.417969v75c-292.082031 0-100.683594 0-241 0v256c0 8.289062 6.710938 15 15 15h45v-136c0-8.289062 6.710938-15 15-15h91c8.289062 0 15 6.710938 15 15v136h316c8.289062 0 15-6.710938 15-15v-241c0-4.71875-2.226562-9.171875-6.007812-11.996094zm-249.992188 206.996094h-30c-8.289062 0-15-6.710938-15-15s6.710938-15 15-15h30c8.289062 0 15 6.710938 15 15s-6.710938 15-15 15zm0-60h-30c-8.289062 0-15-6.710938-15-15s6.710938-15 15-15h30c8.289062 0 15 6.710938 15 15s-6.710938 15-15 15zm0-60h-30c-8.289062 0-15-6.710938-15-15s6.710938-15 15-15h30c8.289062 0 15 6.710938 15 15s-6.710938 15-15 15zm90 120h-30c-8.289062 0-15-6.710938-15-15s6.710938-15 15-15h30c8.289062 0 15 6.710938 15 15s-6.710938 15-15 15zm0-60h-30c-8.289062 0-15-6.710938-15-15s6.710938-15 15-15h30c8.289062 0 15 6.710938 15 15s-6.710938 15-15 15zm0-60h-30c-8.289062 0-15-6.710938-15-15s6.710938-15 15-15h30c8.289062 0 15 6.710938 15 15s-6.710938 15-15 15zm90 120h-30c-8.289062 0-15-6.710938-15-15s6.710938-15 15-15h30c8.289062 0 15 6.710938 15 15s-6.710938 15-15 15zm0-60h-30c-8.289062 0-15-6.710938-15-15s6.710938-15 15-15h30c8.289062 0 15 6.710938 15 15s-6.710938 15-15 15zm0-60h-30c-8.289062 0-15-6.710938-15-15s6.710938-15 15-15h30c8.289062 0 15 6.710938 15 15s-6.710938 15-15 15zm0 0"/><path d="m90 15c0-8.289062-6.710938-15-15-15h-60c-8.289062 0-15 6.710938-15 15v45h90zm0 0"/><path d="m121 90h90v46h-90zm0 0"/><path d="m121 166h90v45h-90zm0 0"/>        
    </symbol>

    <!-- ::svg-sucursal:: -->
    <svg version="1.1" id="svg-sucursal" xmlns="http://www.w3.org/2000/svg" xmlns:xlink="http://www.w3.org/1999/xlink" viewBox="0 0 225 225" fill="#1569B0">
        <use xlink:href ="#ico-sucursal"/>
    </svg>


    <!-- ::ico-socio:: -->
    <symbol viewBox="0 -31 512 512" id="ico-socio">
        <path d="m211 240h90v30h-90zm0 0"/><path d="m415.378906 270h-84.378906v15c0 8.289062-6.710938 15-15 15h-120c-8.289062 0-15-6.710938-15-15v-15h-84.378906c-19.394532 0-36.546875-12.363281-42.6875-30.761719l-53.933594-161.828125v327.589844c0 24.8125 20.1875 45 45 45h422c24.8125 0 45-20.1875 45-45v-327.578125l-53.9375 161.816406c-6.136719 18.398438-23.289062 30.761719-42.683594 30.761719zm0 0"/><path d="m316 0h-120c-24.8125 0-45 20.1875-45 45v15h-125.191406l56.574218 169.746094c2.050782 6.136718 7.777344 10.253906 14.238282 10.253906h84.378906v-15c0-8.289062 6.710938-15 15-15h120c8.289062 0 15 6.710938 15 15v15h84.378906c6.460938 0 12.1875-4.117188 14.238282-10.253906l56.578124-169.746094h-125.195312v-15c0-24.8125-20.1875-45-45-45zm-135 60v-15c0-8.277344 6.722656-15 15-15h120c8.277344 0 15 6.722656 15 15v15zm0 0"/>
    </symbol>

    <!-- ::svg-socio:: -->
    <svg version="1.1" id="svg-socio" xmlns="http://www.w3.org/2000/svg" xmlns:xlink="http://www.w3.org/1999/xlink" viewBox="0 0 225 225" fill="#1569B0">
        <use xlink:href ="#ico-socio"/>
    </svg>


    <!-- ::ico-servicio:: -->
    <symbol viewBox="0 0 575.969 575.969" id="ico-servicio">
        <path d="m392.5 196.1875c0-108.175781-87.925781-196.1875-196-196.1875s-196 88.011719-196 196.1875v107.113281c0 .109375.015625.21875.015625.332031 0 .222657-.015625.445313-.015625.667969 0 45.804688 37.234375 83.070313 83 83.070313 8.285156 0 15-6.71875 15-15v-136.140625c0-8.285157-6.714844-15-15-15-20.132812 0-38.613281 7.214843-53 19.195312v-44.238281c0-91.636719 74.46875-166.1875 166-166.1875s166 74.550781 166 166.1875v44.238281c-14.386719-11.980469-32.867188-19.195312-53-19.195312-8.285156 0-15 6.714843-15 15v136.140625c0 8.28125 6.714844 15 15 15 19.605469 0 37.632812-6.855469 51.847656-18.273438-7.839844 58.839844-55.132812 105.375-114.324218 112.066406.632812-2.804687.976562-5.71875.976562-8.714843 0-21.78125-17.71875-39.5-39.5-39.5h-24c-21.78125 0-39.5 17.71875-39.5 39.550781 0 21.78125 17.71875 39.5 39.5 39.5h47.808594c88.328125 0 160.191406-71.863281 160.191406-160.191406zm0 0"/>
    </symbol>

    <!-- ::svg-servicio:: -->
    <svg version="1.1" id="svg-servicio" xmlns="http://www.w3.org/2000/svg" xmlns:xlink="http://www.w3.org/1999/xlink" viewBox="0 0 225 225" fill="#1569B0">
        <use xlink:href ="#ico-servicio"/>
    </svg>


    <!-- ::ico-um:: -->
    <symbol viewBox="0 0 113.488 113.488" id="ico-um">
        <path d="M77.443,97.406H59.569v11.299c0,2.086,1.691,3.76,3.76,3.76h20.709c2.086,0,3.76-1.693,3.76-3.76V5.158c0-2.086-1.692-3.76-3.76-3.76H63.329c-2.087,0-3.76,1.693-3.76,3.76v9.41h17.874c0.513,0,0.944,0.414,0.944,0.945c0,0.531-0.413,0.945-0.944,0.945H59.569v5.65h10.354c0.513,0,0.945,0.413,0.945,0.945c0,0.531-0.412,0.945-0.945,0.945H59.569v3.76h17.874c0.513,0,0.944,0.414,0.944,0.945c0,0.532-0.413,0.945-0.944,0.945H59.569v5.649h10.354c0.513,0,0.945,0.414,0.945,0.945c0,0.531-0.412,0.945-0.945,0.945H59.569v3.76h17.874c0.513,0,0.944,0.414,0.944,0.945c0,0.532-0.413,0.945-0.944,0.945H59.569v5.65h10.354c0.513,0,0.945,0.414,0.945,0.945c0,0.532-0.412,0.945-0.945,0.945H59.569v3.76h17.874c0.513,0,0.944,0.414,0.944,0.945c0,0.532-0.413,0.945-0.944,0.945H59.569v5.65h10.354c0.513,0,0.945,0.413,0.945,0.944s-0.412,0.944-0.945,0.944H59.569v5.648h17.874c0.513,0,0.944,0.414,0.944,0.945s-0.413,0.945-0.944,0.945H59.569v3.76h10.354c0.513,0,0.945,0.414,0.945,0.945c0,0.53-0.412,0.944-0.945,0.944H59.569v5.648h17.874c0.513,0,0.944,0.413,0.944,0.944s-0.413,0.945-0.944,0.945H59.569v3.701h10.354c0.513,0,0.945,0.412,0.945,0.945c0,0.531-0.412,0.942-0.945,0.942H59.569v5.65h17.874c0.513,0,0.944,0.414,0.944,0.944C78.388,97.008,77.975,97.406,77.443,97.406zM52.029,13.17C52.029,5.906,46.125,0,38.859,0c-6.851,0-12.48,5.237-13.11,11.93c-0.039,0.414-0.059,0.827-0.059,1.26c0,0.02,0,0.965,0,2.362c0,0.295,0,0.61,0,0.945h0.944h23.525h0.945c0.512,0,0.944-0.413,0.944-0.945V13.17H52.029z M52.147,19.292v0.945c0,13.917,0,61.538,0,68.704c0,0.59-4.843,9.842-4.843,9.842c-0.157,0.314-0.492,0.512-0.847,0.512h-7.5h-0.078h-7.5c-0.354,0-0.688-0.197-0.847-0.512c0,0-4.842-9.252-4.842-9.842c0-7.166,0-54.806,0-68.704v-0.945c0-0.512,0.413-0.945,0.944-0.945h12.245h0.079h12.244C51.734,18.348,52.147,18.761,52.147,19.292z M45.77,101.047c0.177,0.295,0.177,0.65,0.02,0.926l-5.157,9.783c-0.513,0.965-0.887,1.732-1.831,1.732c-0.945,0-1.339-0.768-1.851-1.732l-5.473-10.02c-0.138-0.295-0.138-0.531,0.039-0.826c0.178-0.275,0.473-0.355,0.808-0.355h12.638C45.297,100.574,45.591,100.752,45.77,101.047z"/>
    </symbol>

    <!-- ::svg-um:: -->
    <svg version="1.1" id="svg-um" xmlns="http://www.w3.org/2000/svg" xmlns:xlink="http://www.w3.org/1999/xlink" viewBox="0 0 225 225" fill="#1569B0">
        <use xlink:href ="#ico-um"/>
    </svg>


    <!-- ::ico-vacacion:: -->
    <symbol viewBox="0 0 512.001 512.001" id="ico-vacacion">
        <g><g><path d="M458.021,411.668h15.149c21.411,0,38.83-17.644,38.83-39.331c0-21.687-17.419-39.331-38.83-39.331H228.936V205.373c-4.671,0.23-9.537,0.358-14.635,0.358c-5.373,0-10.494-0.139-15.396-0.391v127.664h-11.133L65.678,214.279c-7.52-7.31-17.362-11.205-27.819-10.945c-10.432,0.253-20.125,4.623-27.299,12.309c-14.585,15.638-13.987,40.483,1.335,55.384L145.258,400.71c0.016,0.016,0.033,0.03,0.049,0.046l-61.068,55.501c-6.136,5.577-6.59,15.074-1.013,21.211c2.963,3.26,7.031,4.916,11.116,4.916c3.603,0,7.217-1.289,10.094-3.903l73.516-66.813h20.952v55.702c0,8.292,6.723,15.015,15.015,15.015s15.015-6.723,15.015-15.015v-55.702H413.37l73.516,66.813c2.877,2.614,6.491,3.903,10.094,3.903c4.084,0,8.154-1.656,11.116-4.916c5.577-6.137,5.123-15.634-1.013-21.211L458.021,411.668z"/></g></g><g><g><path d="M409.307,134.635c-20.598-33.277-49.508-60.928-83.602-79.967c-17.204-9.605-35.563-16.923-54.544-21.82c0.666,0.592,1.331,1.185,1.998,1.793c35.544,32.417,55.565,73.521,57.899,118.868c0.116,2.271-0.283,4.538-1.171,6.632c-0.624,1.471-3.045,6.544-8.994,12.8c8.382,3.072,18.768,5.19,31.5,5.19c0.037,0,0.079,0,0.116,0c33.846-0.035,52.024-18.13,57.43-28.815C412.3,144.646,412.061,139.083,409.307,134.635z"/></g></g><g><g><path d="M102.137,54.669c-34.095,19.038-63.003,46.69-83.602,79.967c-2.755,4.449-2.993,10.011-0.632,14.681c5.406,10.686,23.585,28.78,57.43,28.815c0.041,0,0.077,0,0.117,0c12.75,0,23.148-2.125,31.534-5.204c-5.959-6.233-8.388-11.284-9.014-12.75c-0.898-2.103-1.303-4.383-1.186-6.669c2.333-45.349,22.355-86.452,57.898-118.867c0.667-0.608,1.332-1.201,1.998-1.793C137.7,37.746,119.34,45.064,102.137,54.669z"/></g></g><g><g><path d="M253.656,57.502c-15.793-14.567-31.541-23.666-39.736-27.885c-8.181,4.213-23.935,13.314-39.734,27.885c-28.278,26.084-44.104,57.283-47.09,92.803c5.614,6.757,26.601,25.396,87.205,25.396c60.097,0,80.892-18.623,86.445-25.367C297.767,114.804,281.941,83.591,253.656,57.502z"/></g></g><g></g><g></g><g></g><g></g><g></g><g></g><g></g><g></g><g></g><g></g><g></g><g></g><g></g><g></g><g></g>
    </symbol>

    <!-- ::svg-vacacion:: -->
    <svg version="1.1" id="svg-vacacion" xmlns="http://www.w3.org/2000/svg" xmlns:xlink="http://www.w3.org/1999/xlink" viewBox="0 0 225 225" fill="#1569B0">
        <use xlink:href ="#ico-vacacion"/>
    </svg>
    
    
</svg>