<!-- *NOTA: Para agregar más íconos únicamente copiar el código que se encuentra dentro de las
etiquetas SVG de tu .svg dentro de las etiquetas SYMBOL y copiar la propiedad viewBox para que el
vector se pueda redimensionar. :D -->

<svg xmlns="http://www.w3.org/2000/svg" xmlns:xlink="http://www.w3.org/1999/xlink" version="1.1"
    x="0px" y="0px" viewBox="0 0 512 512" style="enable-background:new 0 0 512 512;"
    xml:space="preserve" width="512px" height="512px"> 
    <style type="text/css">
        <![CDATA[  
            /* this is hiding all the nested svg elements unless they are the target*/
            svg > svg:not(:target) {
                display: none;
            }
        ]]> 
    </style>

    <!-- ::ico-certificados:: -->
    <symbol viewBox="0 0 283.5 283.5"  id="ico-certificados">
        <circle cx="20.34" cy="20.34" r="20.34"/><path d="M93.25,72H263.16a20.34,20.34,0,0,0,0-40.68H93.25a20.34,20.34,0,0,0,0,40.68Z" transform="translate(0 -31.29)"/><circle cx="20.34" cy="110.46" r="20.34"/><path d="M263.16,121.41H93.25a20.34,20.34,0,0,0,0,40.68H263.16a20.34,20.34,0,0,0,0-40.68Z" transform="translate(0 -31.29)"/><circle cx="20.34" cy="200.58" r="20.34"/><path d="M263.16,211.53H93.25a20.34,20.34,0,0,0,0,40.68H263.16a20.34,20.34,0,0,0,0-40.68Z" transform="translate(0 -31.29)"/>    
    </symbol>
    <svg version="1.1" id="svg-certificados" xmlns="http://www.w3.org/2000/svg" xmlns:xlink="http://www.w3.org/1999/xlink" viewBox="0 0 225 225" fill="#1569B0">
        <use xlink:href ="#ico-certificados"/>
    </svg>

    <!-- ::ico-certificados-emitidos:: -->
    <symbol viewBox="0 0 283.5 283.5"  id="ico-certificados-emitidos">
        <g>
            <g>
                <g>
                    <path class="st0" d="M122.1,188.8L77.3,144c-3.6-3.6-3.6-9,0-12.6c3.6-3.6,9-3.6,12.6,0l32.4,32.4l67.9-67
                        c3.6-3.6,9.3-3.3,12.6,0c3.6,3.6,3.3,9.3,0,12.6L122.1,188.8z"/>
                </g>
            </g>
            <g>
                <path class="st0" d="M141.9,280.1c-9.6,0-18.9-3.9-25.8-10.5l-19.2-19.2H69.5c-20.1,0-36.4-16.2-36.4-36.4v-27.3l-19.2-19.2
                    c-14.1-14.1-14.1-37.3,0-51.4l19.2-19.2V69.5c0-20.1,16.2-36.4,36.4-36.4h27.3l19.2-19.2c14.1-14.1,37.3-14.1,51.4,0l19.2,19.2
                    H214c20.1,0,36.4,16.2,36.4,36.4v27.3l19.2,19.2c14.1,14.1,14.1,37.3,0,51.4l-19.2,19.2V214c0,20.1-16.2,36.4-36.4,36.4h-27.3
                    l-19.2,19.2C160.8,276.5,151.8,280.1,141.9,280.1z M69.5,52.4c-9.3,0-16.8,7.5-16.8,16.8v35.5l-24.9,24.9
                    c-6.6,6.6-6.6,17.1,0,23.7l24.9,24.9v35.5c0,9.3,7.5,16.8,16.8,16.8h35.5l24.9,24.9c3.3,3.3,7.5,4.8,12,4.8c4.5,0,8.7-1.8,12-4.8
                    l24.9-24.9h35.5c9.3,0,16.8-7.5,16.8-16.8v-35.2l24.9-24.9c6.6-6.6,6.6-17.1,0-23.7l-24.9-25.2V69.2c0-9.3-7.5-16.8-16.8-16.8
                    h-35.5l-24.9-24.9c-6.6-6.6-17.1-6.6-23.7,0l-24.9,24.9H69.5z"/>
            </g>
        </g>
    </symbol>
    <svg version="1.1" id="svg-certificados-emitidos" xmlns="http://www.w3.org/2000/svg" xmlns:xlink="http://www.w3.org/1999/xlink" viewBox="0 0 250 250" fill="#1569B0">
        <use xlink:href ="#ico-certificados-emitidos"/>
    </svg>

    <!-- ::ico-dashboard:: -->
    <symbol viewBox="-90 0 283.5 110"  id="ico-dashboard">
        <path class="st0" d="M53.8,5.8C27.8,5.8,6.6,27,6.6,53s21.2,47.2,47.2,47.2S101,79,101,53S79.8,5.8,53.8,5.8z M91.6,48.5H58.3V15.2C75.7,17.2,89.6,31.1,91.6,48.5z M53.8,91.1c-21,0-38.1-17.1-38.1-38.1c0-19.5,14.7-35.6,33.6-37.9v42.4h42.4C89.4,76.4,73.3,91.1,53.8,91.1z"/>
    </symbol>
    <svg version="1.1" id="svg-dashboard" xmlns="http://www.w3.org/2000/svg" xmlns:xlink="http://www.w3.org/1999/xlink" viewBox="0 0 225 225" fill="#1569B0">
        <use xlink:href ="#ico-dashboard"/>
    </svg>

    <!-- ::ico-menu-m:: -->
    <symbol viewBox="0 0 283.5 283.5"  id="ico-menu-m">
        <g>
            <g>
                <path d="M141.7,94.9c-26,0-47.2,21.2-47.2,47.2s21.2,47.2,47.2,47.2s47.2-21.2,47.2-47.2S167.7,94.9,141.7,94.9z M141.7,180.3
                    c-21,0-38.1-17.1-38.1-38.1s17.1-38.1,38.1-38.1s38.1,17.1,38.1,38.1S162.7,180.3,141.7,180.3z"/>
            </g>
            <g>
                <polygon points="142.1,141.1 132,122.9 123.3,122.9 123.3,157.9 132,157.9 132,137.6 142.1,155.8 152.2,137.6 152.2,157.9 
                    160.9,157.9 160.9,122.9 152.2,122.9 		"/>
            </g>
        </g>
    </symbol>
    <svg version="1.1" id="svg-menu-m" xmlns="http://www.w3.org/2000/svg" xmlns:xlink="http://www.w3.org/1999/xlink" viewBox="0 0 225 225" fill="#1569B0">
        <use xlink:href ="#ico-menu-m"/>
    </svg>

    <!-- ::ico-menu-micuenta:: -->
    <symbol viewBox="0 0 283.5 283.5"  id="ico-menu-micuenta">
        <g>
            <g>
                <path class="st0" d="M143.5,131.8c-36.3,0-65.9-29.6-65.9-65.9S107.2,0,143.5,0s65.9,29.6,65.9,65.9S179.8,131.8,143.5,131.8z
                     M143.5,19c-25.8,0-46.9,21.1-46.9,46.9s21.1,46.9,46.9,46.9s46.9-21.1,46.9-46.9S169.3,19,143.5,19z"/>
            </g>
            <g>
                <path class="st0" d="M259.2,283.5h-19c0-69.1-29.9-99.9-96.9-99.9c-67.9,0-99.9,31.6-99.9,99.9h-19c0-78.8,40.1-118.9,118.9-118.9
                    C221.4,164.6,259.2,203.5,259.2,283.5z"/>
            </g>
        </g>
    </symbol>
    <svg version="1.1" id="svg-menu-micuenta" xmlns="http://www.w3.org/2000/svg" xmlns:xlink="http://www.w3.org/1999/xlink" viewBox="0 0 283.5 283.5" fill="#1569B0">
        <use xlink:href ="#ico-menu-micuenta"/>
    </svg>
    
    
</svg>