<!-- *NOTA: Para agregar más íconos únicamente copiar el código que se encuentra dentro de las
etiquetas SVG de tu .svg dentro de las etiquetas SYMBOL y copiar la propiedad viewBox para que el
vector se pueda redimensionar. :D -->

<svg xmlns="http://www.w3.org/2000/svg" xmlns:xlink="http://www.w3.org/1999/xlink" version="1.1"
    x="0px" y="0px" viewBox="0 0 512 512" style="enable-background:new 0 0 512 512;"
    xml:space="preserve" width="512px" height="512px"> 
    <style type="text/css">
        <![CDATA[  
            /* this is hiding all the nested svg elements unless they are the target*/
            svg > svg:not(:target) {
                display: none;
            }
        ]]> 
    </style>

    <!-- ::ico-certificados:: -->
    <symbol viewBox="0 -90 283.5 283.5"  id="ico-certificados">
        <g><circle class="st0" cx="13.9" cy="13.2" r="6.5"/><path class="st0" d="M37.2,19.7h54.3c3.6,0,6.5-2.9,6.5-6.5c0-3.6-2.9-6.5-6.5-6.5H37.2c-3.6,0-6.5,2.9-6.5,6.5C30.7,16.8,33.6,19.7,37.2,19.7z"/><circle class="st0" cx="13.9" cy="42" r="6.5"/><path class="st0" d="M91.5,35.5H37.2c-3.6,0-6.5,2.9-6.5,6.5s2.9,6.5,6.5,6.5h54.3c3.6,0,6.5-2.9,6.5-6.5S95.1,35.5,91.5,35.5z"/><circle class="st0" cx="13.9" cy="70.8" r="6.5"/><path class="st0" d="M91.5,64.3H37.2c-3.6,0-6.5,2.9-6.5,6.5c0,3.6,2.9,6.5,6.5,6.5h54.3c3.6,0,6.5-2.9,6.5-6.5C98,67.3,95.1,64.3,91.5,64.3z"/></g>
    </symbol>
    <svg version="1.1" id="svg-certificados" xmlns="http://www.w3.org/2000/svg" xmlns:xlink="http://www.w3.org/1999/xlink" viewBox="0 0 225 225" fill="#1569B0">
        <use xlink:href ="#ico-certificados"/>
    </svg>

    <!-- ::ico-certificados-emitidos:: -->
    <symbol viewBox="0 0 283.5 283.5"  id="ico-certificados-emitidos">
        <g>
            <g>
                <g>
                    <path d="M121.1,189.5l-45.3-45.3c-3.7-3.7-3.7-9.1,0-12.8c3.7-3.7,9.1-3.7,12.8,0l32.9,32.9l68.8-67.8c3.7-3.7,9.4-3.3,12.8,0
                        c3.7,3.7,3.3,9.4,0,12.8L121.1,189.5z"/>
                </g>
            </g>
            <g>
                <path d="M141.1,282c-9.7,0-19.2-4-26.2-10.6l-19.5-19.5H67.8C47.4,251.9,31,235.4,31,215v-27.7l-19.5-19.5
                    c-14.3-14.3-14.3-37.7,0-52L31,96.4V68.7c0-20.4,16.4-36.8,36.8-36.8h27.7L115,12.4c14.3-14.3,37.7-14.3,52,0l19.5,19.5h27.7
                    c20.4,0,36.8,16.4,36.8,36.8v27.7l19.5,19.5c14.3,14.3,14.3,37.7,0,52L251,187.4V215c0,20.4-16.4,36.8-36.8,36.8h-27.7L167,271.3
                    C160.3,278.3,151.2,282,141.1,282z M67.8,51.4c-9.4,0-17,7.6-17,17v35.9l-25.2,25.2c-6.7,6.7-6.7,17.3,0,24l25.2,25.2v35.9
                    c0,9.4,7.6,17,17,17h35.9L129,257c3.3,3.3,7.6,4.9,12.2,4.9c4.6,0,8.8-1.8,12.2-4.9l25.2-25.2h35.9c9.4,0,17-7.6,17-17v-35.6
                    l25.2-25.2c6.7-6.7,6.7-17.3,0-24l-25.2-25.6V68.4c0-9.4-7.6-17-17-17h-35.9l-25.2-25.2c-6.7-6.7-17.3-6.7-24,0L104,51.4H67.8z"/>
            </g>
        </g>
    </symbol>
    <svg version="1.1" id="svg-certificados-emitidos" xmlns="http://www.w3.org/2000/svg" xmlns:xlink="http://www.w3.org/1999/xlink" viewBox="0 0 283.5 283.5" fill="#1569B0">
        <use xlink:href ="#ico-certificados-emitidos"/>
    </svg>

    <!-- ::ico-dashboard:: -->
    <symbol viewBox="-90 0 283.5 110"  id="ico-dashboard">
        <path class="st0" d="M53.8,5.8C27.8,5.8,6.6,27,6.6,53s21.2,47.2,47.2,47.2S101,79,101,53S79.8,5.8,53.8,5.8z M91.6,48.5H58.3V15.2C75.7,17.2,89.6,31.1,91.6,48.5z M53.8,91.1c-21,0-38.1-17.1-38.1-38.1c0-19.5,14.7-35.6,33.6-37.9v42.4h42.4C89.4,76.4,73.3,91.1,53.8,91.1z"/>
    </symbol>
    <svg version="1.1" id="svg-dashboard" xmlns="http://www.w3.org/2000/svg" xmlns:xlink="http://www.w3.org/1999/xlink" viewBox="0 0 225 225" fill="#1569B0">
        <use xlink:href ="#ico-dashboard"/>
    </svg>

    <!-- ::ico-menu-m:: -->
    <symbol viewBox="0 0 283.5 283.5"  id="ico-menu-m">
        <g>
            <g>
                <path d="M141.7,94.9c-26,0-47.2,21.2-47.2,47.2s21.2,47.2,47.2,47.2s47.2-21.2,47.2-47.2S167.7,94.9,141.7,94.9z M141.7,180.3
                    c-21,0-38.1-17.1-38.1-38.1s17.1-38.1,38.1-38.1s38.1,17.1,38.1,38.1S162.7,180.3,141.7,180.3z"/>
            </g>
            <g>
                <polygon points="142.1,141.1 132,122.9 123.3,122.9 123.3,157.9 132,157.9 132,137.6 142.1,155.8 152.2,137.6 152.2,157.9 
                    160.9,157.9 160.9,122.9 152.2,122.9 		"/>
            </g>
        </g>
    </symbol>
    <svg version="1.1" id="svg-menu-m" xmlns="http://www.w3.org/2000/svg" xmlns:xlink="http://www.w3.org/1999/xlink" viewBox="0 0 225 225" fill="#1569B0">
        <use xlink:href ="#ico-menu-m"/>
    </svg>

    <!-- ::ico-menu-micuenta:: -->
    <symbol viewBox="0 0 283.5 283.5"  id="ico-menu-micuenta">
        <g>
            <g>
                <path d="M143.9,132.7c-43.8,0-79.5-29.4-79.5-65.5S100,1.7,143.9,1.7s79.5,29.4,79.5,65.5S187.7,132.7,143.9,132.7z M143.9,20.6
                    c-31.1,0-56.6,21-56.6,46.6s25.5,46.6,56.6,46.6s56.6-21,56.6-46.6S175,20.6,143.9,20.6z"/>
            </g>
            <g>
                <path d="M283.5,283.5h-23c0-68.7-36.1-99.3-117-99.3c-82,0-120.5,31.4-120.5,99.3H0c0-78.3,48.4-118.2,143.5-118.2
                    C237.9,165.3,283.5,204,283.5,283.5z"/>
            </g>
        </g>
    </symbol>
    <svg version="1.1" id="svg-menu-micuenta" xmlns="http://www.w3.org/2000/svg" xmlns:xlink="http://www.w3.org/1999/xlink" viewBox="0 0 283.5 283.5" fill="#1569B0">
        <use xlink:href ="#ico-menu-micuenta"/>
    </svg>
    
    
</svg>