<!-- *NOTA: Para agregar más íconos únicamente copiar el código que se encuentra dentro de las
etiquetas SVG de tu .svg dentro de las etiquetas SYMBOL y copiar la propiedad viewBox para que el
vector se pueda redimensionar. :D -->

<svg xmlns="http://www.w3.org/2000/svg" xmlns:xlink="http://www.w3.org/1999/xlink" version="1.1"
    x="0px" y="0px" viewBox="0 0 512 512" style="enable-background:new 0 0 512 512;"
    xml:space="preserve" width="512px" height="512px"> 
    <style type="text/css">
        <![CDATA[  
            /* this is hiding all the nested svg elements unless they are the target*/
            svg > svg:not(:target) {
                display: none;
            }
        ]]> 
    </style>

    <!-- ::ico-certificados:: -->
    <symbol viewBox="0 0 512 512"  id="ico-certificados">
        <g>
            <circle class="st0" cx="36.7" cy="93.2" r="36.7"/>
            <path class="st0" d="M168.4,130h306.9c20.3,0,36.7-16.4,36.7-36.7s-16.4-36.7-36.7-36.7H168.4c-20.3,0-36.7,16.4-36.7,36.7
                S148.1,130,168.4,130z"/>
            <circle class="st0" cx="36.7" cy="256" r="36.7"/>
            <path class="st0" d="M475.3,219.3H168.4c-20.3,0-36.7,16.4-36.7,36.7s16.4,36.7,36.7,36.7h306.9c20.3,0,36.7-16.4,36.7-36.7
                S495.6,219.3,475.3,219.3z"/>
            <circle class="st0" cx="36.7" cy="418.8" r="36.7"/>
            <path class="st0" d="M475.3,382H168.4c-20.3,0-36.7,16.4-36.7,36.7s16.4,36.7,36.7,36.7h306.9c20.3,0,36.7-16.4,36.7-36.7
                C512,399,495.6,382,475.3,382z"/>
        </g>

    </symbol>
    <svg version="1.1" id="svg-certificados" xmlns="http://www.w3.org/2000/svg" xmlns:xlink="http://www.w3.org/1999/xlink" viewBox="0 0 512 512" fill="#1569B0">
        <use xlink:href ="#ico-certificados"/>
    </svg>

    <!-- ::ico-certificados-emitidos:: -->
    <symbol viewBox="0 0 512 512"  id="ico-certificados-emitidos">
        <g>
            <g>
                <g>
                    <path class="st0" d="M219.7,343l-82.8-82.8c-6.7-6.7-6.7-16.7,0-23.3s16.7-6.7,23.3,0l60,60L345.8,173c6.7-6.7,17.2-6.1,23.3,0
                        c6.7,6.7,6.1,17.2,0,23.3L219.7,343z"/>
                </g>
            </g>
            <g>
                <path class="st0" d="M256.3,512c-17.8,0-35-7.2-47.8-19.5L173,457h-50.6c-37.2,0-67.2-30-67.2-67.2v-50.6l-35.6-35.6
                    c-26.1-26.1-26.1-68.9,0-95L55.2,173v-50.6c0-37.2,30-67.2,67.2-67.2H173l35.6-35.6c26.1-26.1,68.9-26.1,95,0l35.6,35.6h50.6
                    c37.2,0,67.2,30,67.2,67.2V173l35.6,35.6c26.1,26.1,26.1,68.9,0,95L457,339.2v50.6c0,37.2-30,67.2-67.2,67.2h-50.6l-35.6,35.6
                    C291.4,505.3,274.7,512,256.3,512z M122.4,90.7c-17.2,0-31.1,13.9-31.1,31.1v65.6l-46.1,46.1c-12.2,12.2-12.2,31.7,0,43.9
                    l46.1,46.1v65.6c0,17.2,13.9,31.1,31.1,31.1H188l46.1,46.1c6.1,6.1,13.9,8.9,22.2,8.9c8.3,0,16.1-3.3,22.2-8.9l46.1-46.1h65.6
                    c17.2,0,31.1-13.9,31.1-31.1v-65l46.1-46.1c12.2-12.2,12.2-31.7,0-43.9l-46.1-46.7v-65.6c0-17.2-13.9-31.1-31.1-31.1h-65.6
                    l-46.1-46.1c-12.2-12.2-31.7-12.2-43.9,0l-46.1,46.1H122.4z"/>
            </g>
        </g>
    </symbol>
    <svg version="1.1" id="svg-certificados-emitidos" xmlns="http://www.w3.org/2000/svg" xmlns:xlink="http://www.w3.org/1999/xlink" viewBox="0 0 512 512" fill="#1569B0">
        <use xlink:href ="#ico-certificados-emitidos"/>
    </svg>

    <!-- ::ico-dashboard:: -->
    <symbol viewBox="0 0 512 512"  id="ico-dashboard">
    
        <path class="st0" d="M256,0C115,0,0,115,0,256s115,256,256,256s256-115,256-256S397,0,256,0z M461,231.6H280.4V51
	C374.8,61.8,450.2,137.2,461,231.6z M256,462.6c-113.9,0-206.6-92.7-206.6-206.6c0-105.8,79.7-193.1,182.2-205.6v230h230
	C449.1,382.9,361.8,462.6,256,462.6z"/>

    </symbol>
    <svg version="1.1" id="svg-dashboard" xmlns="http://www.w3.org/2000/svg" xmlns:xlink="http://www.w3.org/1999/xlink" viewBox="0 0 512 512" fill="#1569B0">
        <use xlink:href ="#ico-dashboard"/>
    </svg>

    <!-- ::ico-menu-m:: -->
    <symbol viewBox="0 0 512 512"  id="ico-menu-m">
        <g>
            <path class="st0" d="M256,0C115,0,0,115,0,256s115,256,256,256s256-115,256-256S397,0,256,0z M256,463.2
                c-113.9,0-206.6-92.7-206.6-206.6S142.1,49.9,256,49.9s206.6,92.7,206.6,206.6S369.9,463.2,256,463.2z"/>
            <polygon class="st0" points="258.2,250.6 203.4,151.9 156.2,151.9 156.2,341.7 203.4,341.7 203.4,231.6 258.2,330.3 312.9,231.6 
                312.9,341.7 360.1,341.7 360.1,151.9 312.9,151.9 	"/>
        </g>
    </symbol>
    <svg version="1.1" id="svg-menu-m" xmlns="http://www.w3.org/2000/svg" xmlns:xlink="http://www.w3.org/1999/xlink" viewBox="0 0 512 512" fill="#1569B0">
        <use xlink:href ="#ico-menu-m"/>
    </svg>

    <!-- ::ico-menu-micuenta:: -->
    <symbol viewBox="0 0 512 512"  id="ico-menu-micuenta">
        <g>
            <g>
                <path class="st0" d="M259.2,238c-65.6,0-119-53.4-119-119S193.6,0,259.2,0s119,53.4,119,119S324.8,238,259.2,238z M259.2,34.4
                    c-46.5,0-84.6,38.1-84.6,84.6s38.1,84.6,84.6,84.6s84.6-38.1,84.6-84.6S305.7,34.4,259.2,34.4z"/>
            </g>
            <g>
                <path class="st0" d="M468.1,512h-34.4c0-124.8-54-180.4-175.1-180.4c-122.7,0-180.4,57.1-180.4,180.4H43.9
                    c0-142.3,72.5-214.7,214.7-214.7C399.9,297.3,468.1,367.6,468.1,512z"/>
            </g>
        </g>
    </symbol>
    <svg version="1.1" id="svg-menu-micuenta" xmlns="http://www.w3.org/2000/svg" xmlns:xlink="http://www.w3.org/1999/xlink" viewBox="0 0 512 512" fill="#1569B0">
        <use xlink:href ="#ico-menu-micuenta"/>
    </svg>
    
    
</svg>